<svg width="32" height="33" viewBox="0 0 32 33" fill="none" xmlns="http://www.w3.org/2000/svg">
<path d="M13.3333 29.6767H18.6666H13.3333ZM6.66663 12.3433C6.66663 9.86799 7.64996 7.49402 9.4003 5.74368C11.1506 3.99334 13.5246 3.01001 16 3.01001C18.4753 3.01001 20.8493 3.99334 22.5996 5.74368C24.35 7.49402 25.3333 9.86799 25.3333 12.3433C25.3342 13.8461 24.9707 15.3267 24.2741 16.6582C23.5774 17.9898 22.5683 19.1325 21.3333 19.9887L20.6106 23.41C20.515 24.0406 20.1964 24.6161 19.7128 25.032C19.2291 25.4478 18.6125 25.6766 17.9746 25.6767H14.0253C13.3875 25.6766 12.7708 25.4478 12.2871 25.032C11.8035 24.6161 11.485 24.0406 11.3893 23.41L10.6666 20.0033C9.43117 19.1442 8.42206 17.9987 7.7255 16.6648C7.02894 15.3309 6.66563 13.8482 6.66663 12.3433V12.3433Z" stroke="#753EF6" stroke-width="2" stroke-linecap="round" stroke-linejoin="round"/>
<path d="M10.6666 20.3433H21.3333" stroke="#753EF6" stroke-width="2" stroke-linecap="round" stroke-linejoin="round"/>
</svg>
