<svg width="107" height="33" viewBox="0 0 107 33" fill="none" xmlns="http://www.w3.org/2000/svg">
<path d="M36.2109 21.7011H38.3203L39.2734 18.787H43.4688L44.4219 21.7011H46.5391L42.5078 10.4277H40.2422L36.2109 21.7011ZM41.3516 12.4355H41.3984L42.9609 17.2323H39.7812L41.3516 12.4355ZM47.5469 24.4355H49.4922V20.3027H49.5312C50 21.2714 50.9453 21.8652 52.125 21.8652C54.2031 21.8652 55.5312 20.2245 55.5312 17.5683V17.5605C55.5312 14.8886 54.2031 13.248 52.1016 13.248C50.9141 13.248 50.0078 13.8573 49.5312 14.8495H49.4922V13.4198H47.5469V24.4355ZM51.5234 20.2245C50.3203 20.2245 49.4766 19.1855 49.4766 17.5683V17.5605C49.4766 15.9355 50.3203 14.8886 51.5234 14.8886C52.7656 14.8886 53.5469 15.9042 53.5469 17.5605V17.5683C53.5469 19.2011 52.7656 20.2245 51.5234 20.2245ZM56.7812 24.4355H58.7266V20.3027H58.7656C59.2344 21.2714 60.1797 21.8652 61.3594 21.8652C63.4375 21.8652 64.7656 20.2245 64.7656 17.5683V17.5605C64.7656 14.8886 63.4375 13.248 61.3359 13.248C60.1484 13.248 59.2422 13.8573 58.7656 14.8495H58.7266V13.4198H56.7812V24.4355ZM60.7578 20.2245C59.5547 20.2245 58.7109 19.1855 58.7109 17.5683V17.5605C58.7109 15.9355 59.5547 14.8886 60.7578 14.8886C62 14.8886 62.7812 15.9042 62.7812 17.5605V17.5683C62.7812 19.2011 62 20.2245 60.7578 20.2245ZM73.375 21.8964C76.125 21.8964 77.7812 20.5605 77.7812 18.4589V18.4511C77.7812 16.6933 76.7578 15.7402 74.4141 15.2558L73.1953 15.0058C71.8359 14.7245 71.2188 14.2558 71.2188 13.4589V13.4511C71.2188 12.5527 72.0391 11.9355 73.3594 11.9277C74.625 11.9277 75.4922 12.5136 75.625 13.498L75.6406 13.5917H77.5703L77.5625 13.4589C77.4453 11.5292 75.8359 10.2323 73.375 10.2323C70.9453 10.2323 69.2031 11.5761 69.1953 13.5605V13.5683C69.1953 15.248 70.2891 16.2792 72.5078 16.7402L73.7188 16.9902C75.1719 17.2948 75.7578 17.748 75.7578 18.5917V18.5995C75.7578 19.5683 74.8672 20.2011 73.4453 20.2011C72.0312 20.2011 71.0391 19.5995 70.8906 18.6308L70.875 18.537H68.9453L68.9531 18.6542C69.0859 20.6777 70.7891 21.8964 73.375 21.8964ZM82.1719 21.8652C82.5625 21.8652 82.9062 21.8261 83.1328 21.7948V20.3339C83 20.3417 82.8516 20.3652 82.6641 20.3652C81.9531 20.3652 81.5938 20.1073 81.5938 19.2948V14.9198H83.1328V13.4198H81.5938V11.3183H79.6172V13.4198H78.4453V14.9198H79.6172V19.4589C79.6172 21.162 80.4375 21.8652 82.1719 21.8652ZM87.9766 21.8652C90.4062 21.8652 91.9844 20.248 91.9844 17.5605V17.5448C91.9844 14.873 90.3828 13.248 87.9688 13.248C85.5625 13.248 83.9688 14.8886 83.9688 17.5448V17.5605C83.9688 20.2402 85.5391 21.8652 87.9766 21.8652ZM87.9844 20.2948C86.7422 20.2948 85.9531 19.3027 85.9531 17.5605V17.5448C85.9531 15.8261 86.7578 14.8261 87.9688 14.8261C89.2031 14.8261 90 15.8183 90 17.5448V17.5605C90 19.2948 89.2109 20.2948 87.9844 20.2948ZM93.2344 21.7011H95.1797V16.8964C95.1797 15.6698 95.8438 14.9745 96.9453 14.9745C97.2734 14.9745 97.5703 15.0214 97.7344 15.0839V13.3261C97.5859 13.287 97.3594 13.248 97.1172 13.248C96.1641 13.248 95.4766 13.8495 95.2188 14.8495H95.1797V13.4198H93.2344V21.7011ZM102.062 21.8652C104.227 21.8652 105.445 20.5839 105.703 19.3105L105.727 19.2245H103.906L103.891 19.2792C103.703 19.8339 103.07 20.3495 102.102 20.3495C100.836 20.3495 100.039 19.4902 100.008 18.037H105.805V17.412C105.805 14.912 104.336 13.248 101.969 13.248C99.6016 13.248 98.0781 14.9667 98.0781 17.5761V17.5839C98.0781 20.2167 99.5781 21.8652 102.062 21.8652ZM101.992 14.7714C103.023 14.7714 103.773 15.4277 103.914 16.7402H100.031C100.188 15.4667 100.961 14.7714 101.992 14.7714Z" fill="white"/>
<path d="M26.22 23.1161C25.8508 23.9768 25.3947 24.7975 24.8587 25.5655C24.1427 26.5881 23.5547 27.2948 23.104 27.6881C22.404 28.3308 21.652 28.6615 20.848 28.6801C20.272 28.6801 19.576 28.5161 18.7654 28.1828C17.952 27.8508 17.2054 27.6881 16.5214 27.6881C15.8054 27.6881 15.0374 27.8508 14.2147 28.1828C13.3934 28.5161 12.7294 28.6908 12.2214 28.7068C11.452 28.7401 10.6827 28.4015 9.91605 27.6881C9.42671 27.2615 8.81471 26.5281 8.08005 25.4908C7.29338 24.3855 6.64671 23.0988 6.14005 21.6361C5.59738 20.0535 5.32538 18.5228 5.32538 17.0401C5.32538 15.3428 5.69205 13.8775 6.42671 12.6508C6.98238 11.6874 7.77678 10.8834 8.73338 10.3161C9.67667 9.75036 10.7535 9.44572 11.8534 9.43347C12.4667 9.43347 13.2707 9.62281 14.2667 9.99614C15.2627 10.3695 15.9027 10.5588 16.1814 10.5588C16.392 10.5588 17.1 10.3361 18.3054 9.89481C19.4427 9.48547 20.4027 9.31614 21.1894 9.38281C23.3227 9.55481 24.924 10.3948 25.9894 11.9095C24.0827 13.0655 23.14 14.6828 23.1587 16.7588C23.1747 18.3761 23.7627 19.7215 24.9147 20.7895C25.424 21.2769 26.0183 21.6668 26.668 21.9401C26.5267 22.3495 26.3774 22.7401 26.22 23.1161ZM21.3307 3.87481C21.3307 5.14147 20.8667 6.32547 19.9454 7.42014C18.8307 8.72147 17.484 9.47481 16.024 9.35614C16.0049 9.19686 15.9956 9.03656 15.996 8.87614C15.996 7.65881 16.524 6.35747 17.4667 5.29214C17.936 4.75347 18.5334 4.30414 19.2574 3.94681C19.98 3.59481 20.6627 3.40014 21.3054 3.36681C21.3227 3.53747 21.3307 3.70681 21.3307 3.87481Z" fill="white"/>
</svg>
