<svg width="20" height="12" viewBox="0 0 20 12" fill="none" xmlns="http://www.w3.org/2000/svg">
<path d="M19.7122 6.21375L13.4561 11.1057C13.3369 11.205 13.171 11.2264 13.0304 11.1606C12.8899 11.0948 12.8001 10.9536 12.8001 10.7984V7.99928H1.20001C0.537263 7.99928 0 7.46202 0 6.79927V4.39925C0 3.7365 0.537263 3.19924 1.20001 3.19924H12.8001V0.399938C12.8001 0.24476 12.8899 0.103599 13.0304 0.0377749C13.171 -0.0280494 13.3369 -0.00665848 13.4561 0.0926557L19.7122 4.98462C19.8945 5.13661 20 5.36177 20 5.59918C20 5.8366 19.8945 6.06175 19.7122 6.21375Z" fill="white"/>
</svg>
