<svg width="40" height="40" viewBox="0 0 40 40" fill="none" xmlns="http://www.w3.org/2000/svg">
<path fill-rule="evenodd" clip-rule="evenodd" d="M1 12.8C1 11.527 1.50045 10.3061 2.39124 9.40589C3.28204 8.50571 4.49022 8 5.75 8H23.5625C24.7146 7.99986 25.8275 8.42286 26.6939 9.19023C27.5603 9.95759 28.1212 11.017 28.2721 12.1712L35.6584 8.8544C36.0199 8.69161 36.416 8.62271 36.8106 8.65397C37.2052 8.68522 37.5858 8.81563 37.9178 9.03335C38.2498 9.25107 38.5227 9.54919 38.7117 9.90062C38.9007 10.252 38.9998 10.6456 39 11.0456V28.9544C38.9997 29.3541 38.9006 29.7473 38.7117 30.0984C38.5228 30.4496 38.2501 30.7475 37.9184 30.9652C37.5868 31.1828 37.2065 31.3133 36.8123 31.3448C36.418 31.3763 36.0222 31.3079 35.6608 31.1456L28.2721 27.8288C28.1212 28.983 27.5603 30.0424 26.6939 30.8098C25.8275 31.5771 24.7146 32.0001 23.5625 32H5.75C4.49022 32 3.28204 31.4943 2.39124 30.5941C1.50045 29.6939 1 28.473 1 27.2V12.8ZM28.3125 25.22L36.625 28.9544V11.0456L28.3125 14.78V25.22ZM5.75 10.4C5.12011 10.4 4.51602 10.6529 4.07062 11.1029C3.62522 11.553 3.375 12.1635 3.375 12.8V27.2C3.375 27.8365 3.62522 28.447 4.07062 28.8971C4.51602 29.3471 5.12011 29.6 5.75 29.6H23.5625C24.1924 29.6 24.7965 29.3471 25.2419 28.8971C25.6873 28.447 25.9375 27.8365 25.9375 27.2V12.8C25.9375 12.1635 25.6873 11.553 25.2419 11.1029C24.7965 10.6529 24.1924 10.4 23.5625 10.4H5.75Z" fill="url(#paint0_linear)"/>
<defs>
<linearGradient id="paint0_linear" x1="20" y1="8" x2="20" y2="32" gradientUnits="userSpaceOnUse">
<stop stop-color="#4A81FE"/>
<stop offset="1" stop-color="#5FBAFA"/>
</linearGradient>
</defs>
</svg>
