<svg width="40" height="40" viewBox="0 0 40 40" fill="none" xmlns="http://www.w3.org/2000/svg">
<path d="M13.345 3.975C10.964 4.63121 8.59913 5.34475 6.25251 6.115C6.03824 6.18441 5.84776 6.31261 5.70279 6.48499C5.55781 6.65736 5.46416 6.867 5.43251 7.09C4.04751 17.4825 7.24751 25.065 11.065 30.06C12.6813 32.196 14.6085 34.0777 16.7825 35.6425C17.6475 36.2525 18.4125 36.6925 19.015 36.975C19.315 37.1175 19.56 37.2125 19.7475 37.27C19.8295 37.2988 19.9141 37.3197 20 37.3325C20.0849 37.3187 20.1686 37.2978 20.25 37.27C20.44 37.2125 20.685 37.1175 20.985 36.975C21.585 36.6925 22.3525 36.25 23.2175 35.6425C25.3915 34.0777 27.3187 32.196 28.935 30.06C32.7525 25.0675 35.9525 17.4825 34.5675 7.09C34.5361 6.86689 34.4426 6.65712 34.2976 6.4847C34.1526 6.31227 33.9619 6.18415 33.7475 6.115C32.12 5.5825 29.3725 4.715 26.655 3.9775C23.88 3.225 21.3275 2.6675 20 2.6675C18.675 2.6675 16.12 3.225 13.345 3.9775V3.975ZM12.68 1.4C15.3925 0.6625 18.275 0 20 0C21.725 0 24.6075 0.6625 27.32 1.4C30.095 2.15 32.8925 3.0375 34.5375 3.575C35.2253 3.80213 35.835 4.21866 36.2967 4.77675C36.7584 5.33484 37.0533 6.01185 37.1475 6.73C38.6375 17.9225 35.18 26.2175 30.985 31.705C29.2061 34.0525 27.085 36.1196 24.6925 37.8375C23.8652 38.4319 22.9887 38.9547 22.0725 39.4C21.3725 39.73 20.62 40 20 40C19.38 40 18.63 39.73 17.9275 39.4C17.0113 38.9547 16.1348 38.432 15.3075 37.8375C12.9151 36.1196 10.794 34.0524 9.01501 31.705C4.82001 26.2175 1.36251 17.9225 2.85251 6.73C2.94673 6.01185 3.24162 5.33484 3.70331 4.77675C4.16499 4.21866 4.77474 3.80213 5.46251 3.575C7.85049 2.79202 10.257 2.06681 12.68 1.4Z" fill="url(#paint0_linear)"/>
<path d="M23.75 16.25C23.7504 17.0258 23.5102 17.7826 23.0624 18.4162C22.6147 19.0498 21.9814 19.5289 21.25 19.7875L22.2125 24.7625C22.2475 24.9434 22.2421 25.1299 22.1966 25.3085C22.1511 25.4871 22.0667 25.6534 21.9494 25.7956C21.8321 25.9377 21.6848 26.0522 21.5181 26.1308C21.3513 26.2093 21.1693 26.25 20.985 26.25H19.015C18.8309 26.2497 18.6492 26.2087 18.4827 26.13C18.3163 26.0512 18.1693 25.9367 18.0523 25.7946C17.9353 25.6525 17.8511 25.4863 17.8057 25.3079C17.7604 25.1295 17.755 24.9432 17.79 24.7625L18.75 19.7875C18.1019 19.5584 17.5293 19.1555 17.0946 18.6229C16.66 18.0903 16.3802 17.4485 16.2856 16.7676C16.1911 16.0868 16.2855 15.393 16.5586 14.7622C16.8317 14.1313 17.273 13.5877 17.8341 13.1907C18.3953 12.7936 19.0548 12.5585 19.7406 12.5109C20.4263 12.4634 21.112 12.6052 21.7226 12.921C22.3332 13.2368 22.8452 13.7143 23.2028 14.3014C23.5603 14.8885 23.7496 15.5626 23.75 16.25Z" fill="url(#paint1_linear)"/>
<defs>
<linearGradient id="paint0_linear" x1="20" y1="0" x2="20" y2="40" gradientUnits="userSpaceOnUse">
<stop stop-color="#4A81FE"/>
<stop offset="1" stop-color="#5FBAFA"/>
</linearGradient>
<linearGradient id="paint1_linear" x1="20" y1="12.502" x2="20" y2="26.25" gradientUnits="userSpaceOnUse">
<stop stop-color="#4A81FE"/>
<stop offset="1" stop-color="#5FBAFA"/>
</linearGradient>
</defs>
</svg>
