<svg width="40" height="40" viewBox="0 0 40 40" fill="none" xmlns="http://www.w3.org/2000/svg">
<path d="M18.75 2.5H21.25V8.75H18.75V2.5Z" fill="url(#paint0_linear)"/>
<path d="M27.1088 11.125L31.4913 6.74121L33.2588 8.50996L28.8763 12.8925L27.1088 11.125Z" fill="url(#paint1_linear)"/>
<path d="M31.25 18.75H37.5V21.25H31.25V18.75Z" fill="url(#paint2_linear)"/>
<path d="M27.1088 28.875L28.8763 27.1075L33.2588 31.49L31.4913 33.2588L27.1088 28.875Z" fill="url(#paint3_linear)"/>
<path d="M18.75 31.25H21.25V37.5H18.75V31.25Z" fill="url(#paint4_linear)"/>
<path d="M6.74252 31.49L11.125 27.1075L12.8925 28.8763L8.51002 33.2588L6.74252 31.49Z" fill="url(#paint5_linear)"/>
<path d="M2.5 18.75H8.75V21.25H2.5V18.75Z" fill="url(#paint6_linear)"/>
<path d="M6.74252 8.50996L8.51002 6.74121L12.8925 11.125L11.125 12.8925L6.74252 8.50996Z" fill="url(#paint7_linear)"/>
<path d="M20 15C20.9889 15 21.9556 15.2932 22.7779 15.8427C23.6001 16.3921 24.241 17.173 24.6194 18.0866C24.9978 19.0002 25.0969 20.0055 24.9039 20.9755C24.711 21.9454 24.2348 22.8363 23.5355 23.5355C22.8363 24.2348 21.9454 24.711 20.9755 24.9039C20.0055 25.0969 19.0002 24.9978 18.0866 24.6194C17.173 24.241 16.3921 23.6001 15.8427 22.7779C15.2932 21.9556 15 20.9889 15 20C15.0017 18.6744 15.529 17.4036 16.4663 16.4663C17.4036 15.529 18.6744 15.0017 20 15ZM20 12.5C18.5166 12.5 17.0666 12.9399 15.8332 13.764C14.5999 14.5881 13.6386 15.7594 13.0709 17.1299C12.5032 18.5003 12.3547 20.0083 12.6441 21.4632C12.9335 22.918 13.6478 24.2544 14.6967 25.3033C15.7456 26.3522 17.082 27.0665 18.5368 27.3559C19.9917 27.6453 21.4997 27.4968 22.8701 26.9291C24.2406 26.3614 25.4119 25.4001 26.236 24.1668C27.0601 22.9334 27.5 21.4834 27.5 20C27.5 18.0109 26.7098 16.1032 25.3033 14.6967C23.8968 13.2902 21.9891 12.5 20 12.5Z" fill="url(#paint8_linear)"/>
<defs>
<linearGradient id="paint0_linear" x1="20" y1="2.5" x2="20" y2="8.75" gradientUnits="userSpaceOnUse">
<stop stop-color="#4A81FE"/>
<stop offset="1" stop-color="#5FBAFA"/>
</linearGradient>
<linearGradient id="paint1_linear" x1="30.1838" y1="6.74121" x2="30.1838" y2="12.8925" gradientUnits="userSpaceOnUse">
<stop stop-color="#4A81FE"/>
<stop offset="1" stop-color="#5FBAFA"/>
</linearGradient>
<linearGradient id="paint2_linear" x1="34.375" y1="18.75" x2="34.375" y2="21.25" gradientUnits="userSpaceOnUse">
<stop stop-color="#4A81FE"/>
<stop offset="1" stop-color="#5FBAFA"/>
</linearGradient>
<linearGradient id="paint3_linear" x1="30.1838" y1="27.1075" x2="30.1838" y2="33.2588" gradientUnits="userSpaceOnUse">
<stop stop-color="#4A81FE"/>
<stop offset="1" stop-color="#5FBAFA"/>
</linearGradient>
<linearGradient id="paint4_linear" x1="20" y1="31.25" x2="20" y2="37.5" gradientUnits="userSpaceOnUse">
<stop stop-color="#4A81FE"/>
<stop offset="1" stop-color="#5FBAFA"/>
</linearGradient>
<linearGradient id="paint5_linear" x1="9.81752" y1="27.1075" x2="9.81752" y2="33.2588" gradientUnits="userSpaceOnUse">
<stop stop-color="#4A81FE"/>
<stop offset="1" stop-color="#5FBAFA"/>
</linearGradient>
<linearGradient id="paint6_linear" x1="5.625" y1="18.75" x2="5.625" y2="21.25" gradientUnits="userSpaceOnUse">
<stop stop-color="#4A81FE"/>
<stop offset="1" stop-color="#5FBAFA"/>
</linearGradient>
<linearGradient id="paint7_linear" x1="9.81752" y1="6.74121" x2="9.81752" y2="12.8925" gradientUnits="userSpaceOnUse">
<stop stop-color="#4A81FE"/>
<stop offset="1" stop-color="#5FBAFA"/>
</linearGradient>
<linearGradient id="paint8_linear" x1="20" y1="12.5" x2="20" y2="27.5" gradientUnits="userSpaceOnUse">
<stop stop-color="#4A81FE"/>
<stop offset="1" stop-color="#5FBAFA"/>
</linearGradient>
</defs>
</svg>
