<svg width="32" height="32" viewBox="0 0 32 32" fill="none" xmlns="http://www.w3.org/2000/svg">
<path opacity="0.1" fill-rule="evenodd" clip-rule="evenodd" d="M0 15.999C0 7.16247 7.16344 -0.000976562 16 -0.000976562C24.8366 -0.000976562 32 7.16247 32 15.999C32 24.8356 24.8366 31.999 16 31.999C7.16344 31.999 0 24.8356 0 15.999Z" fill="white"/>
<path fill-rule="evenodd" clip-rule="evenodd" d="M24.5333 15.9871C24.5333 16.5642 24.4746 17.1405 24.3592 17.7022C24.2467 18.2506 24.08 18.789 23.8617 19.3037C23.6483 19.8093 23.3837 20.2965 23.0745 20.7509C22.77 21.2024 22.4191 21.6259 22.0337 22.012C21.6474 22.3965 21.2224 22.7464 20.7711 23.0523C20.3152 23.3593 19.8273 23.6235 19.3215 23.8378C18.806 24.055 18.2664 24.2215 17.7184 24.3338C17.1559 24.4495 16.5776 24.5085 15.9996 24.5085C15.4213 24.5085 14.8429 24.4495 14.2812 24.3338C13.7324 24.2215 13.1928 24.055 12.6778 23.8378C12.1719 23.6235 11.6836 23.3593 11.2277 23.0523C10.7764 22.7464 10.3514 22.3965 9.96599 22.012C9.58015 21.6259 9.22928 21.2024 8.92427 20.7509C8.61675 20.2965 8.35172 19.8093 8.13755 19.3037C7.91918 18.789 7.75211 18.2506 7.63919 17.7022C7.52503 17.1405 7.46667 16.5642 7.46667 15.9871C7.46667 15.4096 7.52499 14.832 7.63922 14.2715C7.75215 13.7231 7.91922 13.1839 8.13759 12.67C8.35175 12.1641 8.61678 11.6764 8.9243 11.222C9.22931 10.7702 9.58018 10.3474 9.96602 9.96085C10.3515 9.57637 10.7765 9.2273 11.2278 8.9219C11.6836 8.61356 12.172 8.34937 12.6778 8.13465C13.1929 7.917 13.7324 7.75017 14.2812 7.63867C14.8429 7.52384 15.4213 7.46558 15.9997 7.46558C16.5776 7.46558 17.1559 7.52384 17.7185 7.63867C18.2664 7.7502 18.806 7.91703 19.3215 8.13465C19.8273 8.34934 20.3153 8.61356 20.7711 8.9219C21.2224 9.2273 21.6475 9.57637 22.0337 9.96085C22.4191 10.3474 22.77 10.7702 23.0746 11.222C23.3837 11.6764 23.6483 12.1641 23.8617 12.67C24.08 13.1839 24.2467 13.7231 24.3592 14.2715C24.4746 14.832 24.5333 15.4096 24.5333 15.9871ZM12.8903 9.40496C10.8581 10.3632 9.34131 12.2331 8.86836 14.4867C9.06048 14.4883 12.0973 14.5266 15.5962 13.5983C14.3349 11.3606 12.9874 9.5344 12.8903 9.40496ZM16.2 14.7189C12.4477 15.8406 8.84711 15.7599 8.71795 15.7549C8.71585 15.8331 8.71211 15.9088 8.71211 15.9871C8.71211 17.8565 9.41839 19.5608 10.5793 20.8495C10.5768 20.8457 12.5711 17.3127 16.5038 16.0428C16.5988 16.0112 16.6955 15.9829 16.7913 15.9555C16.6084 15.5419 16.4087 15.1275 16.2 14.7189ZM20.8124 10.5255C19.5293 9.39579 17.8447 8.71054 15.9996 8.71054C15.4075 8.71054 14.8329 8.78211 14.2824 8.91442C14.3916 9.0609 15.7604 10.8742 17.0067 13.1593C19.7565 12.1299 20.7944 10.5521 20.8124 10.5255ZM17.288 17.1613C17.2718 17.1666 17.2556 17.1713 17.2397 17.1771C12.94 18.6739 11.5358 21.6903 11.5206 21.7233C12.7578 22.684 14.3096 23.2636 15.9996 23.2636C17.0088 23.2636 17.9701 23.0584 18.8448 22.6869C18.7368 22.0511 18.3135 19.8226 17.288 17.1613ZM20.0719 22.022C21.7082 20.9194 22.8703 19.1685 23.1945 17.1404C23.0445 17.0922 21.0057 16.4476 18.6535 16.8242C19.6093 19.4473 19.9977 21.5835 20.0719 22.022ZM17.5676 14.2437C17.7368 14.5907 17.9006 14.9439 18.0518 15.2988C18.1056 15.4262 18.1581 15.551 18.2093 15.6758C20.7128 15.3613 23.1792 15.8905 23.2846 15.9121C23.2679 14.1871 22.65 12.6038 21.6275 11.3643C21.6137 11.3838 20.4449 13.0703 17.5676 14.2437Z" fill="white"/>
</svg>
