<svg width="275" height="124" viewBox="0 0 275 124" fill="none" xmlns="http://www.w3.org/2000/svg">
<g filter="url(#filter0_d)">
<path fill-rule="evenodd" clip-rule="evenodd" d="M45.3429 6C35.4018 6 27.3429 14.0589 27.3429 24V40.0002L16.7574 50.5589C15.9763 51.3379 15.9763 52.6043 16.7574 53.3873L27.3429 63.9999V80C27.3429 89.9411 35.4018 98 45.3429 98H240.343C250.284 98 258.343 89.9411 258.343 80V24C258.343 14.0589 250.284 6 240.343 6H45.3429Z" fill="white"/>
</g>
<path d="M69.5822 30.674H72.2349C72.1966 28.3409 70.279 26.7301 67.3642 26.7301C64.4942 26.7301 62.3912 28.3153 62.404 30.6932C62.3976 32.6236 63.7591 33.7294 65.9707 34.2599L67.3962 34.6179C68.8216 34.9631 69.6142 35.3722 69.6206 36.2543C69.6142 37.2131 68.7065 37.8651 67.3003 37.8651C65.8621 37.8651 64.8266 37.2003 64.7371 35.8899H62.0588C62.1291 38.7216 64.1554 40.1854 67.3322 40.1854C70.5283 40.1854 72.4075 38.6577 72.4139 36.2607C72.4075 34.081 70.7648 32.924 68.4892 32.4126L67.3131 32.1314C66.1753 31.8693 65.2229 31.4474 65.242 30.5078C65.242 29.6641 65.9899 29.044 67.345 29.044C68.6682 29.044 69.48 29.6449 69.5822 30.674ZM74.2245 40H76.9475V34.1065C76.9475 33.0199 77.6378 32.2976 78.5455 32.2976C79.4404 32.2976 80.0412 32.9112 80.0412 33.8764V40H82.6811V34.0043C82.6811 32.9879 83.2628 32.2976 84.2536 32.2976C85.1229 32.2976 85.7749 32.8409 85.7749 33.9339V40H88.4915V33.397C88.4915 31.2685 87.2259 30.054 85.3978 30.054C83.9596 30.054 82.8409 30.7891 82.4382 31.9141H82.336C82.0228 30.7763 81.0192 30.054 79.6705 30.054C78.3473 30.054 77.3438 30.7571 76.9347 31.9141H76.8196V30.1818H74.2245V40ZM93.4421 40.1854C94.8931 40.1854 95.8328 39.5526 96.3122 38.6385H96.3889V40H98.9713V33.3778C98.9713 31.0384 96.9897 30.054 94.8037 30.054C92.4514 30.054 90.9045 31.179 90.5274 32.9688L93.0458 33.1733C93.2312 32.5213 93.8129 32.0419 94.7909 32.0419C95.7177 32.0419 96.2483 32.5085 96.2483 33.3139V33.3523C96.2483 33.9851 95.5771 34.0682 93.8704 34.2344C91.9272 34.4134 90.1822 35.0653 90.1822 37.2578C90.1822 39.201 91.5693 40.1854 93.4421 40.1854ZM94.222 38.3061C93.3846 38.3061 92.7838 37.9162 92.7838 37.1683C92.7838 36.4013 93.4166 36.0241 94.3754 35.8899C94.9698 35.8068 95.9414 35.6662 96.2674 35.4489V36.4908C96.2674 37.5199 95.4173 38.3061 94.222 38.3061ZM101.084 40H103.807V34.4453C103.807 33.2372 104.689 32.4062 105.891 32.4062C106.268 32.4062 106.786 32.4702 107.041 32.5533V30.1371C106.798 30.0795 106.46 30.0412 106.185 30.0412C105.085 30.0412 104.184 30.6804 103.826 31.8949H103.724V30.1818H101.084V40ZM114.164 30.1818H112.316V27.8295H109.593V30.1818H108.251V32.2273H109.593V37.3409C109.58 39.2649 110.891 40.2173 112.866 40.1342C113.569 40.1087 114.068 39.968 114.343 39.8786L113.914 37.8523C113.78 37.8778 113.492 37.9418 113.237 37.9418C112.693 37.9418 112.316 37.7372 112.316 36.983V32.2273H114.164V30.1818ZM119.656 29.1911H123.664V40H126.4V29.1911H130.407V26.9091H119.656V29.1911ZM134.85 34.3239C134.856 33.0582 135.63 32.3168 136.742 32.3168C137.848 32.3168 138.5 33.0263 138.493 34.2344V40H141.216V33.7486C141.223 31.4474 139.868 30.054 137.822 30.054C136.333 30.054 135.336 30.7571 134.888 31.9141H134.773V26.9091H132.127V40H134.85V34.3239ZM147.834 40.1918C150.263 40.1918 151.899 39.0092 152.283 37.1875L149.764 37.0213C149.489 37.7692 148.786 38.1591 147.878 38.1591C146.517 38.1591 145.654 37.2578 145.654 35.794V35.7876H152.34V35.0398C152.34 31.7031 150.32 30.054 147.725 30.054C144.836 30.054 142.963 32.1058 142.963 35.1357C142.963 38.2486 144.81 40.1918 147.834 40.1918ZM145.654 34.1001C145.712 32.9815 146.562 32.0866 147.77 32.0866C148.952 32.0866 149.77 32.9304 149.777 34.1001H145.654ZM154.117 40H156.84V34.4453C156.84 33.2372 157.722 32.4062 158.924 32.4062C159.301 32.4062 159.819 32.4702 160.074 32.5533V30.1371C159.832 30.0795 159.493 30.0412 159.218 30.0412C158.118 30.0412 157.217 30.6804 156.859 31.8949H156.757V30.1818H154.117V40ZM161.482 40H164.205V34.1065C164.205 33.0199 164.896 32.2976 165.803 32.2976C166.698 32.2976 167.299 32.9112 167.299 33.8764V40H169.939V34.0043C169.939 32.9879 170.521 32.2976 171.511 32.2976C172.381 32.2976 173.033 32.8409 173.033 33.9339V40H175.749V33.397C175.749 31.2685 174.484 30.054 172.656 30.054C171.217 30.054 170.099 30.7891 169.696 31.9141H169.594C169.281 30.7763 168.277 30.054 166.928 30.054C165.605 30.054 164.602 30.7571 164.193 31.9141H164.077V30.1818H161.482V40ZM182.336 40.1918C185.315 40.1918 187.169 38.1527 187.169 35.1293C187.169 32.0866 185.315 30.054 182.336 30.054C179.358 30.054 177.504 32.0866 177.504 35.1293C177.504 38.1527 179.358 40.1918 182.336 40.1918ZM182.349 38.0824C180.975 38.0824 180.272 36.8232 180.272 35.1101C180.272 33.397 180.975 32.1314 182.349 32.1314C183.698 32.1314 184.401 33.397 184.401 35.1101C184.401 36.8232 183.698 38.0824 182.349 38.0824ZM197.108 32.9815C196.865 31.1726 195.408 30.054 192.928 30.054C190.416 30.054 188.76 31.2173 188.767 33.1094C188.76 34.5795 189.687 35.532 191.605 35.9155L193.305 36.2543C194.162 36.4268 194.552 36.7401 194.564 37.2322C194.552 37.8139 193.919 38.2294 192.966 38.2294C191.995 38.2294 191.349 37.8139 191.183 37.0149L188.505 37.1555C188.76 39.0348 190.358 40.1918 192.96 40.1918C195.504 40.1918 197.326 38.8942 197.332 36.9574C197.326 35.5384 196.399 34.6882 194.494 34.2983L192.717 33.9403C191.803 33.7422 191.464 33.429 191.471 32.956C191.464 32.3679 192.129 31.9844 192.973 31.9844C193.919 31.9844 194.481 32.5021 194.615 33.1349L197.108 32.9815ZM204.269 30.1818H202.422V27.8295H199.699V30.1818H198.356V32.2273H199.699V37.3409C199.686 39.2649 200.996 40.2173 202.971 40.1342C203.675 40.1087 204.173 39.968 204.448 39.8786L204.02 37.8523C203.886 37.8778 203.598 37.9418 203.342 37.9418C202.799 37.9418 202.422 37.7372 202.422 36.983V32.2273H204.269V30.1818ZM208.843 40.1854C210.294 40.1854 211.233 39.5526 211.713 38.6385H211.789V40H214.372V33.3778C214.372 31.0384 212.39 30.054 210.204 30.054C207.852 30.054 206.305 31.179 205.928 32.9688L208.446 33.1733C208.632 32.5213 209.213 32.0419 210.191 32.0419C211.118 32.0419 211.649 32.5085 211.649 33.3139V33.3523C211.649 33.9851 210.977 34.0682 209.271 34.2344C207.328 34.4134 205.583 35.0653 205.583 37.2578C205.583 39.201 206.97 40.1854 208.843 40.1854ZM209.622 38.3061C208.785 38.3061 208.184 37.9162 208.184 37.1683C208.184 36.4013 208.817 36.0241 209.776 35.8899C210.37 35.8068 211.342 35.6662 211.668 35.4489V36.4908C211.668 37.5199 210.818 38.3061 209.622 38.3061ZM221.707 30.1818H219.859V27.8295H217.136V30.1818H215.794V32.2273H217.136V37.3409C217.123 39.2649 218.434 40.2173 220.409 40.1342C221.112 40.1087 221.611 39.968 221.886 39.8786L221.457 37.8523C221.323 37.8778 221.035 37.9418 220.78 37.9418C220.236 37.9418 219.859 37.7372 219.859 36.983V32.2273H221.707V30.1818Z" fill="#1A1353"/>
<path opacity="0.7" d="M70.4263 55C70.0484 52.9119 68.378 51.679 66.3297 51.679C63.7246 51.679 61.8353 53.6875 61.8353 56.9091C61.8353 60.1307 63.7246 62.1392 66.3297 62.1392C68.378 62.1392 70.0484 60.9062 70.4263 58.8182H69.1933C68.895 60.2301 67.6819 60.9858 66.3297 60.9858C64.4802 60.9858 63.0285 59.554 63.0285 56.9091C63.0285 54.2642 64.4802 52.8324 66.3297 52.8324C67.6819 52.8324 68.895 53.5881 69.1933 55H70.4263ZM75.3618 62.1591C77.43 62.1591 78.822 60.5881 78.822 58.2216C78.822 55.8352 77.43 54.2642 75.3618 54.2642C73.2936 54.2642 71.9016 55.8352 71.9016 58.2216C71.9016 60.5881 73.2936 62.1591 75.3618 62.1591ZM75.3618 61.1051C73.7908 61.1051 73.0749 59.7528 73.0749 58.2216C73.0749 56.6903 73.7908 55.3182 75.3618 55.3182C76.9328 55.3182 77.6487 56.6903 77.6487 58.2216C77.6487 59.7528 76.9328 61.1051 75.3618 61.1051ZM81.7863 57.4062C81.7863 56.0739 82.6116 55.3182 83.7352 55.3182C84.824 55.3182 85.4852 56.0291 85.4852 57.2273V62H86.6585V57.1477C86.6585 55.1989 85.6194 54.2642 84.0733 54.2642C82.9199 54.2642 82.204 54.7812 81.846 55.5568H81.7466V54.3636H80.613V62H81.7863V57.4062ZM92.1235 54.3636H90.4928V52.5341H89.3195V54.3636H88.1661V55.358H89.3195V60.1307C89.3195 61.4631 90.3934 62.0994 91.3877 62.0994C91.8252 62.0994 92.1036 62.0199 92.2627 61.9602L92.0241 60.9062C91.9247 60.9261 91.7656 60.9659 91.507 60.9659C90.99 60.9659 90.4928 60.8068 90.4928 59.8125V55.358H92.1235V54.3636ZM93.8884 62H95.0617V57.1676C95.0617 56.1335 95.8771 55.3778 96.9907 55.3778C97.3039 55.3778 97.6271 55.4375 97.7066 55.4574V54.2642C97.5724 54.2543 97.2641 54.2443 97.0901 54.2443C96.1754 54.2443 95.3799 54.7614 95.1015 55.517H95.022V54.3636H93.8884V62ZM101.967 62.1591C104.035 62.1591 105.428 60.5881 105.428 58.2216C105.428 55.8352 104.035 54.2642 101.967 54.2642C99.8991 54.2642 98.507 55.8352 98.507 58.2216C98.507 60.5881 99.8991 62.1591 101.967 62.1591ZM101.967 61.1051C100.396 61.1051 99.6803 59.7528 99.6803 58.2216C99.6803 56.6903 100.396 55.3182 101.967 55.3182C103.538 55.3182 104.254 56.6903 104.254 58.2216C104.254 59.7528 103.538 61.1051 101.967 61.1051ZM108.392 51.8182H107.219V62H108.392V51.8182ZM114.478 62H115.652V57.1676C115.652 56.1335 116.467 55.3778 117.581 55.3778C117.894 55.3778 118.217 55.4375 118.296 55.4574V54.2642C118.162 54.2543 117.854 54.2443 117.68 54.2443C116.765 54.2443 115.97 54.7614 115.691 55.517H115.612V54.3636H114.478V62ZM122.657 62.1591C124.208 62.1591 125.341 61.3835 125.699 60.2301L124.566 59.9119C124.267 60.7074 123.576 61.1051 122.657 61.1051C121.279 61.1051 120.33 60.2152 120.275 58.5795H125.818V58.0824C125.818 55.2386 124.128 54.2642 122.537 54.2642C120.469 54.2642 119.097 55.8949 119.097 58.2415C119.097 60.5881 120.449 62.1591 122.657 62.1591ZM120.275 57.5653C120.355 56.3771 121.195 55.3182 122.537 55.3182C123.81 55.3182 124.625 56.2727 124.625 57.5653H120.275ZM127.603 62H128.777V57.2273C128.777 56.1087 129.592 55.3182 130.507 55.3182C131.397 55.3182 132.018 55.8999 132.018 56.7699V62H133.211V57.0284C133.211 56.044 133.828 55.3182 134.902 55.3182C135.737 55.3182 136.453 55.7607 136.453 56.8892V62H137.626V56.8892C137.626 55.0945 136.662 54.2642 135.299 54.2642C134.206 54.2642 133.405 54.7663 133.012 55.5568H132.933C132.555 54.7415 131.889 54.2642 130.885 54.2642C129.89 54.2642 129.154 54.7415 128.836 55.5568H128.737V54.3636H127.603V62ZM142.874 62.1591C144.942 62.1591 146.334 60.5881 146.334 58.2216C146.334 55.8352 144.942 54.2642 142.874 54.2642C140.805 54.2642 139.413 55.8352 139.413 58.2216C139.413 60.5881 140.805 62.1591 142.874 62.1591ZM142.874 61.1051C141.303 61.1051 140.587 59.7528 140.587 58.2216C140.587 56.6903 141.303 55.3182 142.874 55.3182C144.445 55.3182 145.16 56.6903 145.16 58.2216C145.16 59.7528 144.445 61.1051 142.874 61.1051ZM151.446 54.3636H149.815V52.5341H148.642V54.3636H147.488V55.358H148.642V60.1307C148.642 61.4631 149.716 62.0994 150.71 62.0994C151.147 62.0994 151.426 62.0199 151.585 61.9602L151.346 60.9062C151.247 60.9261 151.088 60.9659 150.829 60.9659C150.312 60.9659 149.815 60.8068 149.815 59.8125V55.358H151.446V54.3636ZM156.33 62.1591C157.882 62.1591 159.015 61.3835 159.373 60.2301L158.239 59.9119C157.941 60.7074 157.25 61.1051 156.33 61.1051C154.953 61.1051 154.004 60.2152 153.949 58.5795H159.492V58.0824C159.492 55.2386 157.802 54.2642 156.211 54.2642C154.143 54.2642 152.771 55.8949 152.771 58.2415C152.771 60.5881 154.123 62.1591 156.33 62.1591ZM153.949 57.5653C154.029 56.3771 154.869 55.3182 156.211 55.3182C157.484 55.3182 158.299 56.2727 158.299 57.5653H153.949ZM168.536 54.3636H166.905V52.5341H165.732V54.3636H164.578V55.358H165.732V60.1307C165.732 61.4631 166.806 62.0994 167.8 62.0994C168.237 62.0994 168.516 62.0199 168.675 61.9602L168.436 60.9062C168.337 60.9261 168.178 60.9659 167.919 60.9659C167.402 60.9659 166.905 60.8068 166.905 59.8125V55.358H168.536V54.3636ZM171.638 57.4062C171.638 56.0739 172.488 55.3182 173.646 55.3182C174.75 55.3182 175.416 56.0142 175.416 57.2273V62H176.59V57.1477C176.59 55.1839 175.546 54.2642 173.984 54.2642C172.781 54.2642 172.095 54.7663 171.737 55.5568H171.638V51.8182H170.465V62H171.638V57.4062ZM181.938 62.1591C183.489 62.1591 184.622 61.3835 184.98 60.2301L183.847 59.9119C183.549 60.7074 182.858 61.1051 181.938 61.1051C180.561 61.1051 179.611 60.2152 179.556 58.5795H185.1V58.0824C185.1 55.2386 183.409 54.2642 181.818 54.2642C179.75 54.2642 178.378 55.8949 178.378 58.2415C178.378 60.5881 179.73 62.1591 181.938 62.1591ZM179.556 57.5653C179.636 56.3771 180.476 55.3182 181.818 55.3182C183.091 55.3182 183.907 56.2727 183.907 57.5653H179.556ZM65.395 71.3636H63.7643V69.5341H62.591V71.3636H61.4376V72.358H62.591V77.1307C62.591 78.4631 63.6649 79.0994 64.6592 79.0994C65.0967 79.0994 65.3751 79.0199 65.5342 78.9602L65.2956 77.9062C65.1961 77.9261 65.0371 77.9659 64.7785 77.9659C64.2615 77.9659 63.7643 77.8068 63.7643 76.8125V72.358H65.395V71.3636ZM70.2796 79.1591C71.8307 79.1591 72.9643 78.3835 73.3222 77.2301L72.1887 76.9119C71.8904 77.7074 71.1993 78.1051 70.2796 78.1051C68.9025 78.1051 67.9529 77.2152 67.8982 75.5795H73.4415V75.0824C73.4415 72.2386 71.7512 71.2642 70.1603 71.2642C68.0921 71.2642 66.7199 72.8949 66.7199 75.2415C66.7199 77.5881 68.0722 79.1591 70.2796 79.1591ZM67.8982 74.5653C67.9778 73.3771 68.8179 72.3182 70.1603 72.3182C71.433 72.3182 72.2483 73.2727 72.2483 74.5653H67.8982ZM75.2263 79H76.3996V74.2273C76.3996 73.1087 77.215 72.3182 78.1297 72.3182C79.0197 72.3182 79.6411 72.8999 79.6411 73.7699V79H80.8343V74.0284C80.8343 73.044 81.4508 72.3182 82.5246 72.3182C83.3599 72.3182 84.0758 72.7607 84.0758 73.8892V79H85.2491V73.8892C85.2491 72.0945 84.2846 71.2642 82.9224 71.2642C81.8286 71.2642 81.0282 71.7663 80.6354 72.5568H80.5559C80.178 71.7415 79.5118 71.2642 78.5076 71.2642C77.5133 71.2642 76.7775 71.7415 76.4593 72.5568H76.3599V71.3636H75.2263V79ZM87.3943 81.8636H88.5676V77.8267H88.667C88.9255 78.2443 89.4227 79.1591 90.8943 79.1591C92.8034 79.1591 94.1358 77.6278 94.1358 75.2017C94.1358 72.7955 92.8034 71.2642 90.8744 71.2642C89.3829 71.2642 88.9255 72.179 88.667 72.5767H88.5278V71.3636H87.3943V81.8636ZM88.5477 75.1818C88.5477 73.4716 89.3034 72.3182 90.7352 72.3182C92.2267 72.3182 92.9625 73.571 92.9625 75.1818C92.9625 76.8125 92.2068 78.1051 90.7352 78.1051C89.3233 78.1051 88.5477 76.9119 88.5477 75.1818ZM99.1273 79.1591C100.678 79.1591 101.812 78.3835 102.17 77.2301L101.036 76.9119C100.738 77.7074 100.047 78.1051 99.1273 78.1051C97.7501 78.1051 96.8005 77.2152 96.7459 75.5795H102.289V75.0824C102.289 72.2386 100.599 71.2642 99.0079 71.2642C96.9398 71.2642 95.5676 72.8949 95.5676 75.2415C95.5676 77.5881 96.9199 79.1591 99.1273 79.1591ZM96.7459 74.5653C96.8254 73.3771 97.6656 72.3182 99.0079 72.3182C100.281 72.3182 101.096 73.2727 101.096 74.5653H96.7459ZM104.074 79H105.247V74.1676C105.247 73.1335 106.063 72.3778 107.176 72.3778C107.489 72.3778 107.813 72.4375 107.892 72.4574V71.2642C107.758 71.2543 107.45 71.2443 107.276 71.2443C106.361 71.2443 105.565 71.7614 105.287 72.517H105.208V71.3636H104.074V79ZM111.53 79.179C112.863 79.179 113.559 78.4631 113.797 77.9659H113.857V79H115.03V73.9688C115.03 71.5426 113.181 71.2642 112.206 71.2642C111.053 71.2642 109.74 71.6619 109.144 73.054L110.257 73.4517C110.516 72.8949 111.127 72.2983 112.246 72.2983C113.325 72.2983 113.857 72.87 113.857 73.8494V73.8892C113.857 74.456 113.28 74.4062 111.888 74.5852C110.471 74.7692 108.925 75.0824 108.925 76.8324C108.925 78.3239 110.078 79.179 111.53 79.179ZM111.709 78.125C110.774 78.125 110.098 77.7074 110.098 76.892C110.098 75.9972 110.914 75.7188 111.828 75.5994C112.326 75.5398 113.658 75.4006 113.857 75.1619V76.2358C113.857 77.1903 113.101 78.125 111.709 78.125ZM120.493 71.3636H118.862V69.5341H117.689V71.3636H116.535V72.358H117.689V77.1307C117.689 78.4631 118.763 79.0994 119.757 79.0994C120.194 79.0994 120.473 79.0199 120.632 78.9602L120.393 77.9062C120.294 77.9261 120.135 77.9659 119.876 77.9659C119.359 77.9659 118.862 77.8068 118.862 76.8125V72.358H120.493V71.3636ZM127.07 75.8778C127.07 77.3097 125.976 77.9659 125.101 77.9659C124.127 77.9659 123.431 77.25 123.431 76.1364V71.3636H122.258V76.2159C122.258 78.1648 123.292 79.0994 124.723 79.0994C125.877 79.0994 126.633 78.483 126.991 77.7074H127.07V79H128.243V71.3636H127.07V75.8778ZM130.392 79H131.566V74.1676C131.566 73.1335 132.381 72.3778 133.495 72.3778C133.808 72.3778 134.131 72.4375 134.211 72.4574V71.2642C134.076 71.2543 133.768 71.2443 133.594 71.2443C132.679 71.2443 131.884 71.7614 131.605 72.517H131.526V71.3636H130.392V79ZM138.571 79.1591C140.122 79.1591 141.255 78.3835 141.613 77.2301L140.48 76.9119C140.181 77.7074 139.49 78.1051 138.571 78.1051C137.193 78.1051 136.244 77.2152 136.189 75.5795H141.733V75.0824C141.733 72.2386 140.042 71.2642 138.451 71.2642C136.383 71.2642 135.011 72.8949 135.011 75.2415C135.011 77.5881 136.363 79.1591 138.571 79.1591ZM136.189 74.5653C136.269 73.3771 137.109 72.3182 138.451 72.3182C139.724 72.3182 140.539 73.2727 140.539 74.5653H136.189ZM150.855 71.3636H149.145V70.5881C149.145 69.8324 149.463 69.4347 150.239 69.4347C150.577 69.4347 150.776 69.5142 150.895 69.554L151.233 68.5398C151.054 68.4602 150.696 68.3409 150.12 68.3409C149.026 68.3409 147.972 68.9972 147.972 70.3097V71.3636H146.739V72.358H147.972V79H149.145V72.358H150.855V71.3636ZM155.288 79.1591C157.356 79.1591 158.748 77.5881 158.748 75.2216C158.748 72.8352 157.356 71.2642 155.288 71.2642C153.219 71.2642 151.827 72.8352 151.827 75.2216C151.827 77.5881 153.219 79.1591 155.288 79.1591ZM155.288 78.1051C153.717 78.1051 153.001 76.7528 153.001 75.2216C153.001 73.6903 153.717 72.3182 155.288 72.3182C156.859 72.3182 157.575 73.6903 157.575 75.2216C157.575 76.7528 156.859 78.1051 155.288 78.1051ZM160.539 79H161.712V74.1676C161.712 73.1335 162.527 72.3778 163.641 72.3778C163.954 72.3778 164.277 72.4375 164.357 72.4574V71.2642C164.223 71.2543 163.915 71.2443 163.741 71.2443C162.826 71.2443 162.03 71.7614 161.752 72.517H161.672V71.3636H160.539V79ZM172.887 79.1591C174.438 79.1591 175.572 78.3835 175.93 77.2301L174.796 76.9119C174.498 77.7074 173.807 78.1051 172.887 78.1051C171.51 78.1051 170.56 77.2152 170.506 75.5795H176.049V75.0824C176.049 72.2386 174.359 71.2642 172.768 71.2642C170.7 71.2642 169.327 72.8949 169.327 75.2415C169.327 77.5881 170.68 79.1591 172.887 79.1591ZM170.506 74.5653C170.585 73.3771 171.425 72.3182 172.768 72.3182C174.04 72.3182 174.856 73.2727 174.856 74.5653H170.506ZM180.081 79.179C181.413 79.179 182.109 78.4631 182.348 77.9659H182.408V79H183.581V73.9688C183.581 71.5426 181.731 71.2642 180.757 71.2642C179.604 71.2642 178.291 71.6619 177.695 73.054L178.808 73.4517C179.067 72.8949 179.678 72.2983 180.797 72.2983C181.876 72.2983 182.408 72.87 182.408 73.8494V73.8892C182.408 74.456 181.831 74.4062 180.439 74.5852C179.022 74.7692 177.476 75.0824 177.476 76.8324C177.476 78.3239 178.629 79.179 180.081 79.179ZM180.26 78.125C179.325 78.125 178.649 77.7074 178.649 76.892C178.649 75.9972 179.464 75.7188 180.379 75.5994C180.876 75.5398 182.209 75.4006 182.408 75.1619V76.2358C182.408 77.1903 181.652 78.125 180.26 78.125ZM188.825 79.1591C190.515 79.1591 191.629 78.125 191.828 76.7727H190.654C190.435 77.608 189.739 78.1051 188.825 78.1051C187.433 78.1051 186.538 76.9517 186.538 75.1818C186.538 73.4517 187.453 72.3182 188.825 72.3182C189.859 72.3182 190.475 72.9545 190.654 73.6506H191.828C191.629 72.2188 190.416 71.2642 188.805 71.2642C186.737 71.2642 185.364 72.8949 185.364 75.2216C185.364 77.5085 186.677 79.1591 188.825 79.1591ZM194.716 74.4062C194.716 73.0739 195.566 72.3182 196.725 72.3182C197.828 72.3182 198.494 73.0142 198.494 74.2273V79H199.668V74.1477C199.668 72.1839 198.624 71.2642 197.063 71.2642C195.859 71.2642 195.173 71.7663 194.815 72.5568H194.716V68.8182H193.543V79H194.716V74.4062ZM205.752 79H206.925V74.1676C206.925 73.1335 207.74 72.3778 208.854 72.3778C209.167 72.3778 209.49 72.4375 209.57 72.4574V71.2642C209.436 71.2543 209.127 71.2443 208.953 71.2443C208.039 71.2443 207.243 71.7614 206.965 72.517H206.885V71.3636H205.752V79ZM213.831 79.1591C215.899 79.1591 217.291 77.5881 217.291 75.2216C217.291 72.8352 215.899 71.2642 213.831 71.2642C211.762 71.2642 210.37 72.8352 210.37 75.2216C210.37 77.5881 211.762 79.1591 213.831 79.1591ZM213.831 78.1051C212.26 78.1051 211.544 76.7528 211.544 75.2216C211.544 73.6903 212.26 72.3182 213.831 72.3182C215.402 72.3182 216.117 73.6903 216.117 75.2216C216.117 76.7528 215.402 78.1051 213.831 78.1051ZM222.184 79.1591C224.252 79.1591 225.644 77.5881 225.644 75.2216C225.644 72.8352 224.252 71.2642 222.184 71.2642C220.116 71.2642 218.724 72.8352 218.724 75.2216C218.724 77.5881 220.116 79.1591 222.184 79.1591ZM222.184 78.1051C220.613 78.1051 219.897 76.7528 219.897 75.2216C219.897 73.6903 220.613 72.3182 222.184 72.3182C223.755 72.3182 224.471 73.6903 224.471 75.2216C224.471 76.7528 223.755 78.1051 222.184 78.1051ZM227.435 79H228.609V74.2273C228.609 73.1087 229.424 72.3182 230.339 72.3182C231.229 72.3182 231.85 72.8999 231.85 73.7699V79H233.043V74.0284C233.043 73.044 233.66 72.3182 234.734 72.3182C235.569 72.3182 236.285 72.7607 236.285 73.8892V79H237.458V73.8892C237.458 72.0945 236.494 71.2642 235.131 71.2642C234.038 71.2642 233.237 71.7663 232.844 72.5568H232.765C232.387 71.7415 231.721 71.2642 230.717 71.2642C229.722 71.2642 228.986 71.7415 228.668 72.5568H228.569V71.3636H227.435V79ZM240.458 79.0795C240.951 79.0795 241.353 78.6768 241.353 78.1847C241.353 77.6925 240.951 77.2898 240.458 77.2898C239.966 77.2898 239.564 77.6925 239.564 78.1847C239.564 78.6768 239.966 79.0795 240.458 79.0795Z" fill="#1A1353"/>
<defs>
<filter id="filter0_d" x="0.17157" y="0" width="274.171" height="124" filterUnits="userSpaceOnUse" color-interpolation-filters="sRGB">
<feFlood flood-opacity="0" result="BackgroundImageFix"/>
<feColorMatrix in="SourceAlpha" type="matrix" values="0 0 0 0 0 0 0 0 0 0 0 0 0 0 0 0 0 0 127 0" result="hardAlpha"/>
<feOffset dy="10"/>
<feGaussianBlur stdDeviation="8"/>
<feColorMatrix type="matrix" values="0 0 0 0 0.209444 0 0 0 0 0.3393 0 0 0 0 0.433333 0 0 0 0.1 0"/>
<feBlend mode="normal" in2="BackgroundImageFix" result="effect1_dropShadow"/>
<feBlend mode="normal" in="SourceGraphic" in2="effect1_dropShadow" result="shape"/>
</filter>
</defs>
</svg>
