<svg width="275" height="158" viewBox="0 0 275 158" fill="none" xmlns="http://www.w3.org/2000/svg">
<g filter="url(#filter0_d)">
<path fill-rule="evenodd" clip-rule="evenodd" d="M34 6C24.0589 6 16 14.0589 16 24V114C16 123.941 24.0589 132 34 132H229C238.941 132 247 123.941 247 114V24C247 14.0589 238.941 6 229 6H34ZM247 63.9694L257.586 53.4106C258.367 52.6315 258.367 51.3652 257.586 50.5822L247 39.9694L247 63.9694Z" fill="white"/>
</g>
<path d="M53.2393 30.674H55.892C55.8537 28.3409 53.9361 26.7301 51.0213 26.7301C48.1513 26.7301 46.0483 28.3153 46.0611 30.6932C46.0547 32.6236 47.4162 33.7294 49.6278 34.2599L51.0533 34.6179C52.4787 34.9631 53.2713 35.3722 53.2777 36.2543C53.2713 37.2131 52.3636 37.8651 50.9574 37.8651C49.5192 37.8651 48.4837 37.2003 48.3942 35.8899H45.7159C45.7862 38.7216 47.8125 40.1854 50.9893 40.1854C54.1854 40.1854 56.0646 38.6577 56.071 36.2607C56.0646 34.081 54.4219 32.924 52.1463 32.4126L50.9702 32.1314C49.8324 31.8693 48.88 31.4474 48.8991 30.5078C48.8991 29.6641 49.647 29.044 51.0021 29.044C52.3253 29.044 53.1371 29.6449 53.2393 30.674ZM62.3176 40.1918C64.932 40.1918 66.5748 38.6577 66.7026 36.4013H64.133C63.9732 37.4496 63.2828 38.0376 62.3496 38.0376C61.0776 38.0376 60.253 36.9702 60.253 35.0909C60.253 33.2372 61.084 32.1761 62.3496 32.1761C63.3468 32.1761 63.986 32.8345 64.133 33.8125H66.7026C66.5875 31.5433 64.8681 30.054 62.3049 30.054C59.3262 30.054 57.4853 32.1186 57.4853 35.1293C57.4853 38.1143 59.2942 40.1918 62.3176 40.1918ZM72.9205 40.1918C75.3494 40.1918 76.9858 39.0092 77.3693 37.1875L74.8509 37.0213C74.576 37.7692 73.8729 38.1591 72.9652 38.1591C71.6037 38.1591 70.7408 37.2578 70.7408 35.794V35.7876H77.4268V35.0398C77.4268 31.7031 75.407 30.054 72.8118 30.054C69.9226 30.054 68.0497 32.1058 68.0497 35.1357C68.0497 38.2486 69.897 40.1918 72.9205 40.1918ZM70.7408 34.1001C70.7983 32.9815 71.6484 32.0866 72.8565 32.0866C74.0391 32.0866 74.8572 32.9304 74.8636 34.1001H70.7408ZM81.9268 34.3239C81.9332 33.0582 82.6875 32.3168 83.7869 32.3168C84.88 32.3168 85.5384 33.0327 85.532 34.2344V40H88.255V33.7486C88.255 31.4602 86.9126 30.054 84.8672 30.054C83.4098 30.054 82.3551 30.7699 81.9141 31.9141H81.799V30.1818H79.2038V40H81.9268V34.3239ZM94.8755 40.1918C97.3045 40.1918 98.9409 39.0092 99.3244 37.1875L96.8059 37.0213C96.5311 37.7692 95.8279 38.1591 94.9203 38.1591C93.5588 38.1591 92.6958 37.2578 92.6958 35.794V35.7876H99.3819V35.0398C99.3819 31.7031 97.362 30.054 94.7669 30.054C91.8777 30.054 90.0048 32.1058 90.0048 35.1357C90.0048 38.2486 91.8521 40.1918 94.8755 40.1918ZM92.6958 34.1001C92.7534 32.9815 93.6035 32.0866 94.8116 32.0866C95.9941 32.0866 96.8123 32.9304 96.8187 34.1001H92.6958Z" fill="#1A1353"/>
<path opacity="0.7" d="M46.233 62H52.4574V60.9062H47.4659V57.446H52.0597V56.3523H47.4659V52.9119H52.3778V51.8182H46.233V62ZM56.6882 62.179C58.0206 62.179 58.7166 61.4631 58.9553 60.9659H59.0149V62H60.1882V56.9688C60.1882 54.5426 58.3388 54.2642 57.3643 54.2642C56.2109 54.2642 54.8984 54.6619 54.3018 56.054L55.4155 56.4517C55.674 55.8949 56.2855 55.2983 57.4041 55.2983C58.483 55.2983 59.0149 55.87 59.0149 56.8494V56.8892C59.0149 57.456 58.4382 57.4062 57.0462 57.5852C55.6293 57.7692 54.0831 58.0824 54.0831 59.8324C54.0831 61.3239 55.2365 62.179 56.6882 62.179ZM56.8672 61.125C55.9325 61.125 55.2564 60.7074 55.2564 59.892C55.2564 58.9972 56.0717 58.7188 56.9865 58.5994C57.4837 58.5398 58.8161 58.4006 59.0149 58.1619V59.2358C59.0149 60.1903 58.2592 61.125 56.8672 61.125ZM67.7388 56.0739C67.3709 54.9901 66.5456 54.2642 65.0343 54.2642C63.4235 54.2642 62.2303 55.179 62.2303 56.4716C62.2303 57.5256 62.8567 58.2315 64.2587 58.5597L65.5314 58.858C66.302 59.0369 66.665 59.4048 66.665 59.9318C66.665 60.5881 65.9689 61.125 64.8752 61.125C63.9157 61.125 63.3141 60.7124 63.1053 59.892L61.9917 60.1705C62.2651 61.468 63.334 62.1591 64.8951 62.1591C66.6699 62.1591 67.878 61.1896 67.878 59.8722C67.878 58.8082 67.2118 58.1371 65.8496 57.804L64.7161 57.5256C63.8113 57.3018 63.4036 56.9986 63.4036 56.4119C63.4036 55.7557 64.0996 55.2784 65.0343 55.2784C66.0584 55.2784 66.481 55.8452 66.6848 56.3722L67.7388 56.0739ZM69.6442 62H70.8175V54.3636H69.6442V62ZM70.2408 53.0909C70.6982 53.0909 71.076 52.733 71.076 52.2955C71.076 51.858 70.6982 51.5 70.2408 51.5C69.7834 51.5 69.4055 51.858 69.4055 52.2955C69.4055 52.733 69.7834 53.0909 70.2408 53.0909ZM74.1397 51.8182H72.9664V62H74.1397V51.8182ZM77.0444 64.8636C78.1033 64.8636 78.8491 64.3018 79.2915 63.1136L82.543 54.3835L81.2603 54.3636L79.1523 60.4489H79.0728L76.9648 54.3636H75.6921L78.516 62.0398L78.2972 62.6364C77.8697 63.7997 77.3427 63.9091 76.4876 63.6903L76.1893 64.7244C76.3086 64.7841 76.6467 64.8636 77.0444 64.8636ZM88.0328 64.8636H89.2061V60.8267H89.3056C89.5641 61.2443 90.0613 62.1591 91.5328 62.1591C93.4419 62.1591 94.7743 60.6278 94.7743 58.2017C94.7743 55.7955 93.4419 54.2642 91.513 54.2642C90.0215 54.2642 89.5641 55.179 89.3056 55.5767H89.1664V54.3636H88.0328V64.8636ZM89.1863 58.1818C89.1863 56.4716 89.9419 55.3182 91.3738 55.3182C92.8652 55.3182 93.601 56.571 93.601 58.1818C93.601 59.8125 92.8453 61.1051 91.3738 61.1051C89.9618 61.1051 89.1863 59.9119 89.1863 58.1818ZM96.5641 62H97.7374V57.1676C97.7374 56.1335 98.5527 55.3778 99.6664 55.3778C99.9796 55.3778 100.303 55.4375 100.382 55.4574V54.2642C100.248 54.2543 99.9398 54.2443 99.7658 54.2443C98.851 54.2443 98.0556 54.7614 97.7772 55.517H97.6976V54.3636H96.5641V62ZM104.643 62.1591C106.711 62.1591 108.103 60.5881 108.103 58.2216C108.103 55.8352 106.711 54.2642 104.643 54.2642C102.575 54.2642 101.183 55.8352 101.183 58.2216C101.183 60.5881 102.575 62.1591 104.643 62.1591ZM104.643 61.1051C103.072 61.1051 102.356 59.7528 102.356 58.2216C102.356 56.6903 103.072 55.3182 104.643 55.3182C106.214 55.3182 106.93 56.6903 106.93 58.2216C106.93 59.7528 106.214 61.1051 104.643 61.1051ZM112.977 65.0227C114.806 65.0227 116.278 64.1875 116.278 62.2188V54.3636H115.144V55.5767H115.025C114.766 55.179 114.289 54.2642 112.798 54.2642C110.869 54.2642 109.536 55.7955 109.536 58.142C109.536 60.5284 110.928 61.8807 112.778 61.8807C114.269 61.8807 114.746 61.0057 115.005 60.5881H115.104V62.1392C115.104 63.4119 114.21 63.9886 112.977 63.9886C111.589 63.9886 111.102 63.2578 110.789 62.8352L109.854 63.4915C110.332 64.2919 111.271 65.0227 112.977 65.0227ZM112.937 60.8267C111.465 60.8267 110.71 59.7131 110.71 58.1222C110.71 56.571 111.445 55.3182 112.937 55.3182C114.369 55.3182 115.124 56.4716 115.124 58.1222C115.124 59.8125 114.349 60.8267 112.937 60.8267ZM118.425 62H119.599V57.1676C119.599 56.1335 120.414 55.3778 121.528 55.3778C121.841 55.3778 122.164 55.4375 122.244 55.4574V54.2642C122.109 54.2543 121.801 54.2443 121.627 54.2443C120.712 54.2443 119.917 54.7614 119.638 55.517H119.559V54.3636H118.425V62ZM125.882 62.179C127.214 62.179 127.91 61.4631 128.149 60.9659H128.208V62H129.382V56.9688C129.382 54.5426 127.532 54.2642 126.558 54.2642C125.404 54.2642 124.092 54.6619 123.495 56.054L124.609 56.4517C124.867 55.8949 125.479 55.2983 126.597 55.2983C127.676 55.2983 128.208 55.87 128.208 56.8494V56.8892C128.208 57.456 127.632 57.4062 126.24 57.5852C124.823 57.7692 123.276 58.0824 123.276 59.8324C123.276 61.3239 124.43 62.179 125.882 62.179ZM126.061 61.125C125.126 61.125 124.45 60.7074 124.45 59.892C124.45 58.9972 125.265 58.7188 126.18 58.5994C126.677 58.5398 128.009 58.4006 128.208 58.1619V59.2358C128.208 60.1903 127.453 61.125 126.061 61.125ZM131.523 62H132.696V57.2273C132.696 56.1087 133.512 55.3182 134.426 55.3182C135.316 55.3182 135.938 55.8999 135.938 56.7699V62H137.131V57.0284C137.131 56.044 137.748 55.3182 138.821 55.3182C139.657 55.3182 140.373 55.7607 140.373 56.8892V62H141.546V56.8892C141.546 55.0945 140.581 54.2642 139.219 54.2642C138.125 54.2642 137.325 54.7663 136.932 55.5568H136.853C136.475 54.7415 135.809 54.2642 134.804 54.2642C133.81 54.2642 133.074 54.7415 132.756 55.5568H132.657V54.3636H131.523V62ZM149.359 62H150.512L152.183 56.1335H152.302L153.972 62H155.126L157.452 54.3636H156.219L154.569 60.1903H154.489L152.879 54.3636H151.626L149.995 60.2102H149.915L148.265 54.3636H147.032L149.359 62ZM160.177 57.4062C160.177 56.0739 161.027 55.3182 162.185 55.3182C163.289 55.3182 163.955 56.0142 163.955 57.2273V62H165.129V57.1477C165.129 55.1839 164.085 54.2642 162.523 54.2642C161.32 54.2642 160.634 54.7663 160.276 55.5568H160.177V51.8182H159.004V62H160.177V57.4062ZM169.522 62.179C170.855 62.179 171.551 61.4631 171.789 60.9659H171.849V62H173.022V56.9688C173.022 54.5426 171.173 54.2642 170.198 54.2642C169.045 54.2642 167.732 54.6619 167.136 56.054L168.249 56.4517C168.508 55.8949 169.119 55.2983 170.238 55.2983C171.317 55.2983 171.849 55.87 171.849 56.8494V56.8892C171.849 57.456 171.272 57.4062 169.88 57.5852C168.463 57.7692 166.917 58.0824 166.917 59.8324C166.917 61.3239 168.07 62.179 169.522 62.179ZM169.701 61.125C168.767 61.125 168.09 60.7074 168.09 59.892C168.09 58.9972 168.906 58.7188 169.82 58.5994C170.318 58.5398 171.65 58.4006 171.849 58.1619V59.2358C171.849 60.1903 171.093 61.125 169.701 61.125ZM178.485 54.3636H176.854V52.5341H175.681V54.3636H174.527V55.358H175.681V60.1307C175.681 61.4631 176.755 62.0994 177.749 62.0994C178.186 62.0994 178.465 62.0199 178.624 61.9602L178.385 60.9062C178.286 60.9261 178.127 60.9659 177.868 60.9659C177.351 60.9659 176.854 60.8068 176.854 59.8125V55.358H178.485V54.3636ZM187.508 54.3636H185.877V52.5341H184.704V54.3636H183.551V55.358H184.704V60.1307C184.704 61.4631 185.778 62.0994 186.772 62.0994C187.21 62.0994 187.488 62.0199 187.647 61.9602L187.409 60.9062C187.309 60.9261 187.15 60.9659 186.892 60.9659C186.375 60.9659 185.877 60.8068 185.877 59.8125V55.358H187.508V54.3636ZM192.293 62.1591C194.362 62.1591 195.754 60.5881 195.754 58.2216C195.754 55.8352 194.362 54.2642 192.293 54.2642C190.225 54.2642 188.833 55.8352 188.833 58.2216C188.833 60.5881 190.225 62.1591 192.293 62.1591ZM192.293 61.1051C190.722 61.1051 190.006 59.7528 190.006 58.2216C190.006 56.6903 190.722 55.3182 192.293 55.3182C193.864 55.3182 194.58 56.6903 194.58 58.2216C194.58 59.7528 193.864 61.1051 192.293 61.1051ZM204.366 62.1591C205.837 62.1591 206.334 61.2443 206.593 60.8267H206.732V62H207.866V51.8182H206.692V55.5767H206.593C206.334 55.179 205.877 54.2642 204.385 54.2642C202.456 54.2642 201.124 55.7955 201.124 58.2017C201.124 60.6278 202.456 62.1591 204.366 62.1591ZM204.525 61.1051C203.053 61.1051 202.297 59.8125 202.297 58.1818C202.297 56.571 203.033 55.3182 204.525 55.3182C205.956 55.3182 206.712 56.4716 206.712 58.1818C206.712 59.9119 205.937 61.1051 204.525 61.1051ZM213.28 62.1591C215.348 62.1591 216.74 60.5881 216.74 58.2216C216.74 55.8352 215.348 54.2642 213.28 54.2642C211.211 54.2642 209.819 55.8352 209.819 58.2216C209.819 60.5881 211.211 62.1591 213.28 62.1591ZM213.28 61.1051C211.709 61.1051 210.993 59.7528 210.993 58.2216C210.993 56.6903 211.709 55.3182 213.28 55.3182C214.851 55.3182 215.567 56.6903 215.567 58.2216C215.567 59.7528 214.851 61.1051 213.28 61.1051ZM47.804 79H48.9574L50.6278 73.1335H50.7472L52.4176 79H53.571L55.8977 71.3636H54.6648L53.0142 77.1903H52.9347L51.3239 71.3636H50.071L48.4403 77.2102H48.3608L46.7102 71.3636H45.4773L47.804 79ZM58.6222 74.4062C58.6222 73.0739 59.4723 72.3182 60.6307 72.3182C61.7344 72.3182 62.4006 73.0142 62.4006 74.2273V79H63.5739V74.1477C63.5739 72.1839 62.5298 71.2642 60.9688 71.2642C59.7656 71.2642 59.0795 71.7663 58.7216 72.5568H58.6222V68.8182H57.4489V79H58.6222V74.4062ZM68.9221 79.1591C70.4732 79.1591 71.6067 78.3835 71.9647 77.2301L70.8311 76.9119C70.5328 77.7074 69.8418 78.1051 68.9221 78.1051C67.5449 78.1051 66.5953 77.2152 66.5407 75.5795H72.084V75.0824C72.084 72.2386 70.3936 71.2642 68.8027 71.2642C66.7346 71.2642 65.3624 72.8949 65.3624 75.2415C65.3624 77.5881 66.7147 79.1591 68.9221 79.1591ZM66.5407 74.5653C66.6202 73.3771 67.4604 72.3182 68.8027 72.3182C70.0755 72.3182 70.8908 73.2727 70.8908 74.5653H66.5407ZM75.0421 74.4062C75.0421 73.0739 75.8674 72.3182 76.9909 72.3182C78.0797 72.3182 78.7409 73.0291 78.7409 74.2273V79H79.9142V74.1477C79.9142 72.1989 78.8752 71.2642 77.329 71.2642C76.1756 71.2642 75.4597 71.7812 75.1017 72.5568H75.0023V71.3636H73.8688V79H75.0421V74.4062ZM89.3963 71.3636H87.6861V70.5881C87.6861 69.8324 88.0043 69.4347 88.7798 69.4347C89.1179 69.4347 89.3168 69.5142 89.4361 69.554L89.7741 68.5398C89.5952 68.4602 89.2372 68.3409 88.6605 68.3409C87.5668 68.3409 86.5128 68.9972 86.5128 70.3097V71.3636H85.2798V72.358H86.5128V79H87.6861V72.358H89.3963V71.3636ZM93.8285 79.1591C95.8967 79.1591 97.2887 77.5881 97.2887 75.2216C97.2887 72.8352 95.8967 71.2642 93.8285 71.2642C91.7603 71.2642 90.3683 72.8352 90.3683 75.2216C90.3683 77.5881 91.7603 79.1591 93.8285 79.1591ZM93.8285 78.1051C92.2575 78.1051 91.5415 76.7528 91.5415 75.2216C91.5415 73.6903 92.2575 72.3182 93.8285 72.3182C95.3995 72.3182 96.1154 73.6903 96.1154 75.2216C96.1154 76.7528 95.3995 78.1051 93.8285 78.1051ZM99.0797 79H100.253V74.1676C100.253 73.1335 101.068 72.3778 102.182 72.3778C102.495 72.3778 102.818 72.4375 102.898 72.4574V71.2642C102.764 71.2543 102.455 71.2443 102.281 71.2443C101.367 71.2443 100.571 71.7614 100.293 72.517H100.213V71.3636H99.0797V79ZM111.428 79.1591C112.979 79.1591 114.113 78.3835 114.471 77.2301L113.337 76.9119C113.039 77.7074 112.348 78.1051 111.428 78.1051C110.051 78.1051 109.101 77.2152 109.047 75.5795H114.59V75.0824C114.59 72.2386 112.9 71.2642 111.309 71.2642C109.24 71.2642 107.868 72.8949 107.868 75.2415C107.868 77.5881 109.221 79.1591 111.428 79.1591ZM109.047 74.5653C109.126 73.3771 109.966 72.3182 111.309 72.3182C112.581 72.3182 113.397 73.2727 113.397 74.5653H109.047ZM117.045 71.3636H115.692L118.118 75.1818L115.692 79H117.045L118.874 76.0369L120.704 79H122.056L119.59 75.1818L122.056 71.3636H120.704L118.874 74.4858L117.045 71.3636ZM125.977 79.179C127.31 79.179 128.006 78.4631 128.244 77.9659H128.304V79H129.477V73.9688C129.477 71.5426 127.628 71.2642 126.653 71.2642C125.5 71.2642 124.188 71.6619 123.591 73.054L124.705 73.4517C124.963 72.8949 125.575 72.2983 126.693 72.2983C127.772 72.2983 128.304 72.87 128.304 73.8494V73.8892C128.304 74.456 127.727 74.4062 126.335 74.5852C124.918 74.7692 123.372 75.0824 123.372 76.8324C123.372 78.3239 124.526 79.179 125.977 79.179ZM126.156 78.125C125.222 78.125 124.545 77.7074 124.545 76.892C124.545 75.9972 125.361 75.7188 126.276 75.5994C126.773 75.5398 128.105 75.4006 128.304 75.1619V76.2358C128.304 77.1903 127.548 78.125 126.156 78.125ZM131.619 79H132.792V74.2273C132.792 73.1087 133.607 72.3182 134.522 72.3182C135.412 72.3182 136.034 72.8999 136.034 73.7699V79H137.227V74.0284C137.227 73.044 137.843 72.3182 138.917 72.3182C139.752 72.3182 140.468 72.7607 140.468 73.8892V79H141.642V73.8892C141.642 72.0945 140.677 71.2642 139.315 71.2642C138.221 71.2642 137.421 71.7663 137.028 72.5568H136.948C136.57 71.7415 135.904 71.2642 134.9 71.2642C133.906 71.2642 133.17 71.7415 132.852 72.5568H132.752V71.3636H131.619V79ZM143.787 81.8636H144.96V77.8267H145.059C145.318 78.2443 145.815 79.1591 147.287 79.1591C149.196 79.1591 150.528 77.6278 150.528 75.2017C150.528 72.7955 149.196 71.2642 147.267 71.2642C145.775 71.2642 145.318 72.179 145.059 72.5767H144.92V71.3636H143.787V81.8636ZM144.94 75.1818C144.94 73.4716 145.696 72.3182 147.128 72.3182C148.619 72.3182 149.355 73.571 149.355 75.1818C149.355 76.8125 148.599 78.1051 147.128 78.1051C145.716 78.1051 144.94 76.9119 144.94 75.1818ZM153.491 68.8182H152.318V79H153.491V68.8182ZM158.842 79.1591C160.393 79.1591 161.527 78.3835 161.885 77.2301L160.751 76.9119C160.453 77.7074 159.762 78.1051 158.842 78.1051C157.465 78.1051 156.515 77.2152 156.461 75.5795H162.004V75.0824C162.004 72.2386 160.314 71.2642 158.723 71.2642C156.654 71.2642 155.282 72.8949 155.282 75.2415C155.282 77.5881 156.635 79.1591 158.842 79.1591ZM156.461 74.5653C156.54 73.3771 157.38 72.3182 158.723 72.3182C159.995 72.3182 160.811 73.2727 160.811 74.5653H156.461ZM168.482 81.8636C169.541 81.8636 170.287 81.3018 170.729 80.1136L173.98 71.3835L172.698 71.3636L170.59 77.4489H170.51L168.402 71.3636H167.13L169.953 79.0398L169.735 79.6364C169.307 80.7997 168.78 80.9091 167.925 80.6903L167.627 81.7244C167.746 81.7841 168.084 81.8636 168.482 81.8636ZM178.362 79.1591C180.43 79.1591 181.822 77.5881 181.822 75.2216C181.822 72.8352 180.43 71.2642 178.362 71.2642C176.294 71.2642 174.901 72.8352 174.901 75.2216C174.901 77.5881 176.294 79.1591 178.362 79.1591ZM178.362 78.1051C176.791 78.1051 176.075 76.7528 176.075 75.2216C176.075 73.6903 176.791 72.3182 178.362 72.3182C179.933 72.3182 180.649 73.6903 180.649 75.2216C180.649 76.7528 179.933 78.1051 178.362 78.1051ZM188.425 75.8778C188.425 77.3097 187.332 77.9659 186.457 77.9659C185.482 77.9659 184.786 77.25 184.786 76.1364V71.3636H183.613V76.2159C183.613 78.1648 184.647 79.0994 186.079 79.0994C187.232 79.0994 187.988 78.483 188.346 77.7074H188.425V79H189.599V71.3636H188.425V75.8778ZM192.762 68.8182H191.668V72.3182H192.762V68.8182ZM194.851 79H196.025V74.1676C196.025 73.1335 196.84 72.3778 197.953 72.3778C198.267 72.3778 198.59 72.4375 198.669 72.4574V71.2642C198.535 71.2543 198.227 71.2443 198.053 71.2443C197.138 71.2443 196.343 71.7614 196.064 72.517H195.985V71.3636H194.851V79ZM203.029 79.1591C204.581 79.1591 205.714 78.3835 206.072 77.2301L204.939 76.9119C204.64 77.7074 203.949 78.1051 203.029 78.1051C201.652 78.1051 200.703 77.2152 200.648 75.5795H206.191V75.0824C206.191 72.2386 204.501 71.2642 202.91 71.2642C200.842 71.2642 199.47 72.8949 199.47 75.2415C199.47 77.5881 200.822 79.1591 203.029 79.1591ZM200.648 74.5653C200.728 73.3771 201.568 72.3182 202.91 72.3182C204.183 72.3182 204.998 73.2727 204.998 74.5653H200.648ZM46.0739 96H47.2472V91.1676C47.2472 90.1335 48.0625 89.3778 49.1761 89.3778C49.4893 89.3778 49.8125 89.4375 49.892 89.4574V88.2642C49.7578 88.2543 49.4496 88.2443 49.2756 88.2443C48.3608 88.2443 47.5653 88.7614 47.2869 89.517H47.2074V88.3636H46.0739V96ZM54.2521 96.1591C55.8033 96.1591 56.9368 95.3835 57.2947 94.2301L56.1612 93.9119C55.8629 94.7074 55.1719 95.1051 54.2521 95.1051C52.875 95.1051 51.9254 94.2152 51.8707 92.5795H57.4141V92.0824C57.4141 89.2386 55.7237 88.2642 54.1328 88.2642C52.0646 88.2642 50.6925 89.8949 50.6925 92.2415C50.6925 94.5881 52.0447 96.1591 54.2521 96.1591ZM51.8707 91.5653C51.9503 90.3771 52.7905 89.3182 54.1328 89.3182C55.4055 89.3182 56.2209 90.2727 56.2209 91.5653H51.8707ZM61.446 96.179C62.7784 96.179 63.4744 95.4631 63.7131 94.9659H63.7727V96H64.946V90.9688C64.946 88.5426 63.0966 88.2642 62.1222 88.2642C60.9688 88.2642 59.6562 88.6619 59.0597 90.054L60.1733 90.4517C60.4318 89.8949 61.0433 89.2983 62.1619 89.2983C63.2408 89.2983 63.7727 89.87 63.7727 90.8494V90.8892C63.7727 91.456 63.196 91.4062 61.804 91.5852C60.3871 91.7692 58.8409 92.0824 58.8409 93.8324C58.8409 95.3239 59.9943 96.179 61.446 96.179ZM61.625 95.125C60.6903 95.125 60.0142 94.7074 60.0142 93.892C60.0142 92.9972 60.8295 92.7188 61.7443 92.5994C62.2415 92.5398 63.5739 92.4006 63.7727 92.1619V93.2358C63.7727 94.1903 63.017 95.125 61.625 95.125ZM69.9711 96.1591C71.4426 96.1591 71.9398 95.2443 72.1983 94.8267H72.3375V96H73.4711V85.8182H72.2978V89.5767H72.1983C71.9398 89.179 71.4824 88.2642 69.9909 88.2642C68.062 88.2642 66.7296 89.7955 66.7296 92.2017C66.7296 94.6278 68.062 96.1591 69.9711 96.1591ZM70.1301 95.1051C68.6586 95.1051 67.9029 93.8125 67.9029 92.1818C67.9029 90.571 68.6387 89.3182 70.1301 89.3182C71.562 89.3182 72.3176 90.4716 72.3176 92.1818C72.3176 93.9119 71.5421 95.1051 70.1301 95.1051ZM76.5385 98.8636C77.5975 98.8636 78.3432 98.3018 78.7857 97.1136L82.0371 88.3835L80.7544 88.3636L78.6465 94.4489H78.5669L76.459 88.3636H75.1863L78.0101 96.0398L77.7914 96.6364C77.3638 97.7997 76.8368 97.9091 75.9817 97.6903L75.6834 98.7244C75.8027 98.7841 76.1408 98.8636 76.5385 98.8636ZM90.848 88.3636H89.2173V86.5341H88.044V88.3636H86.8906V89.358H88.044V94.1307C88.044 95.4631 89.1179 96.0994 90.1122 96.0994C90.5497 96.0994 90.8281 96.0199 90.9872 95.9602L90.7486 94.9062C90.6491 94.9261 90.4901 94.9659 90.2315 94.9659C89.7145 94.9659 89.2173 94.8068 89.2173 93.8125V89.358H90.848V88.3636ZM95.6332 96.1591C97.7013 96.1591 99.0934 94.5881 99.0934 92.2216C99.0934 89.8352 97.7013 88.2642 95.6332 88.2642C93.565 88.2642 92.1729 89.8352 92.1729 92.2216C92.1729 94.5881 93.565 96.1591 95.6332 96.1591ZM95.6332 95.1051C94.0621 95.1051 93.3462 93.7528 93.3462 92.2216C93.3462 90.6903 94.0621 89.3182 95.6332 89.3182C97.2042 89.3182 97.9201 90.6903 97.9201 92.2216C97.9201 93.7528 97.2042 95.1051 95.6332 95.1051ZM107.904 99.0227C109.734 99.0227 111.205 98.1875 111.205 96.2188V88.3636H110.072V89.5767H109.953C109.694 89.179 109.217 88.2642 107.725 88.2642C105.796 88.2642 104.464 89.7955 104.464 92.142C104.464 94.5284 105.856 95.8807 107.705 95.8807C109.197 95.8807 109.674 95.0057 109.933 94.5881H110.032V96.1392C110.032 97.4119 109.137 97.9886 107.904 97.9886C106.517 97.9886 106.03 97.2578 105.717 96.8352L104.782 97.4915C105.259 98.2919 106.199 99.0227 107.904 99.0227ZM107.865 94.8267C106.393 94.8267 105.637 93.7131 105.637 92.1222C105.637 90.571 106.373 89.3182 107.865 89.3182C109.296 89.3182 110.052 90.4716 110.052 92.1222C110.052 93.8125 109.276 94.8267 107.865 94.8267ZM116.455 96.1591C118.524 96.1591 119.916 94.5881 119.916 92.2216C119.916 89.8352 118.524 88.2642 116.455 88.2642C114.387 88.2642 112.995 89.8352 112.995 92.2216C112.995 94.5881 114.387 96.1591 116.455 96.1591ZM116.455 95.1051C114.884 95.1051 114.169 93.7528 114.169 92.2216C114.169 90.6903 114.884 89.3182 116.455 89.3182C118.026 89.3182 118.742 90.6903 118.742 92.2216C118.742 93.7528 118.026 95.1051 116.455 95.1051ZM128.965 88.3636H127.335V86.5341H126.161V88.3636H125.008V89.358H126.161V94.1307C126.161 95.4631 127.235 96.0994 128.229 96.0994C128.667 96.0994 128.945 96.0199 129.104 95.9602L128.866 94.9062C128.766 94.9261 128.607 94.9659 128.349 94.9659C127.832 94.9659 127.335 94.8068 127.335 93.8125V89.358H128.965V88.3636ZM133.75 96.1591C135.819 96.1591 137.211 94.5881 137.211 92.2216C137.211 89.8352 135.819 88.2642 133.75 88.2642C131.682 88.2642 130.29 89.8352 130.29 92.2216C130.29 94.5881 131.682 96.1591 133.75 96.1591ZM133.75 95.1051C132.179 95.1051 131.463 93.7528 131.463 92.2216C131.463 90.6903 132.179 89.3182 133.75 89.3182C135.321 89.3182 136.037 90.6903 136.037 92.2216C136.037 93.7528 135.321 95.1051 133.75 95.1051ZM143.098 96H144.232V94.8267H144.371C144.629 95.2443 145.127 96.1591 146.598 96.1591C148.507 96.1591 149.84 94.6278 149.84 92.2017C149.84 89.7955 148.507 88.2642 146.578 88.2642C145.087 88.2642 144.629 89.179 144.371 89.5767H144.271V85.8182H143.098V96ZM144.252 92.1818C144.252 90.4716 145.007 89.3182 146.439 89.3182C147.931 89.3182 148.666 90.571 148.666 92.1818C148.666 93.8125 147.911 95.1051 146.439 95.1051C145.027 95.1051 144.252 93.9119 144.252 92.1818ZM154.836 96.1591C156.387 96.1591 157.521 95.3835 157.879 94.2301L156.745 93.9119C156.447 94.7074 155.756 95.1051 154.836 95.1051C153.459 95.1051 152.509 94.2152 152.455 92.5795H157.998V92.0824C157.998 89.2386 156.308 88.2642 154.717 88.2642C152.649 88.2642 151.276 89.8949 151.276 92.2415C151.276 94.5881 152.629 96.1591 154.836 96.1591ZM152.455 91.5653C152.534 90.3771 153.374 89.3182 154.717 89.3182C155.99 89.3182 156.805 90.2727 156.805 91.5653H152.455ZM162.666 96.1591C164.138 96.1591 164.635 95.2443 164.894 94.8267H165.033V96H166.166V85.8182H164.993V89.5767H164.894C164.635 89.179 164.178 88.2642 162.686 88.2642C160.757 88.2642 159.425 89.7955 159.425 92.2017C159.425 94.6278 160.757 96.1591 162.666 96.1591ZM162.825 95.1051C161.354 95.1051 160.598 93.8125 160.598 92.1818C160.598 90.571 161.334 89.3182 162.825 89.3182C164.257 89.3182 165.013 90.4716 165.013 92.1818C165.013 93.9119 164.237 95.1051 162.825 95.1051ZM175.518 96.1591C177.586 96.1591 178.978 94.5881 178.978 92.2216C178.978 89.8352 177.586 88.2642 175.518 88.2642C173.45 88.2642 172.058 89.8352 172.058 92.2216C172.058 94.5881 173.45 96.1591 175.518 96.1591ZM175.518 95.1051C173.947 95.1051 173.231 93.7528 173.231 92.2216C173.231 90.6903 173.947 89.3182 175.518 89.3182C177.089 89.3182 177.805 90.6903 177.805 92.2216C177.805 93.7528 177.089 95.1051 175.518 95.1051ZM180.769 96H181.942V91.1676C181.942 90.1335 182.758 89.3778 183.871 89.3778C184.185 89.3778 184.508 89.4375 184.587 89.4574V88.2642C184.453 88.2543 184.145 88.2443 183.971 88.2443C183.056 88.2443 182.261 88.7614 181.982 89.517H181.903V88.3636H180.769V96ZM195.325 90.0739C194.957 88.9901 194.132 88.2642 192.62 88.2642C191.009 88.2642 189.816 89.179 189.816 90.4716C189.816 91.5256 190.443 92.2315 191.845 92.5597L193.117 92.858C193.888 93.0369 194.251 93.4048 194.251 93.9318C194.251 94.5881 193.555 95.125 192.461 95.125C191.502 95.125 190.9 94.7124 190.691 93.892L189.578 94.1705C189.851 95.468 190.92 96.1591 192.481 96.1591C194.256 96.1591 195.464 95.1896 195.464 93.8722C195.464 92.8082 194.798 92.1371 193.436 91.804L192.302 91.5256C191.397 91.3018 190.99 90.9986 190.99 90.4119C190.99 89.7557 191.686 89.2784 192.62 89.2784C193.644 89.2784 194.067 89.8452 194.271 90.3722L195.325 90.0739ZM200.551 88.3636H198.92V86.5341H197.747V88.3636H196.594V89.358H197.747V94.1307C197.747 95.4631 198.821 96.0994 199.815 96.0994C200.253 96.0994 200.531 96.0199 200.69 95.9602L200.452 94.9062C200.352 94.9261 200.193 94.9659 199.935 94.9659C199.418 94.9659 198.92 94.8068 198.92 93.8125V89.358H200.551V88.3636ZM204.563 96.179C205.896 96.179 206.592 95.4631 206.83 94.9659H206.89V96H208.063V90.9688C208.063 88.5426 206.214 88.2642 205.239 88.2642C204.086 88.2642 202.773 88.6619 202.177 90.054L203.29 90.4517C203.549 89.8949 204.161 89.2983 205.279 89.2983C206.358 89.2983 206.89 89.87 206.89 90.8494V90.8892C206.89 91.456 206.313 91.4062 204.921 91.5852C203.504 91.7692 201.958 92.0824 201.958 93.8324C201.958 95.3239 203.112 96.179 204.563 96.179ZM204.742 95.125C203.808 95.125 203.131 94.7074 203.131 93.892C203.131 92.9972 203.947 92.7188 204.862 92.5994C205.359 92.5398 206.691 92.4006 206.89 92.1619V93.2358C206.89 94.1903 206.134 95.125 204.742 95.125ZM210.205 96H211.378V91.1676C211.378 90.1335 212.193 89.3778 213.307 89.3778C213.62 89.3778 213.943 89.4375 214.023 89.4574V88.2642C213.889 88.2543 213.58 88.2443 213.406 88.2443C212.492 88.2443 211.696 88.7614 211.418 89.517H211.338V88.3636H210.205V96ZM219.213 88.3636H217.583V86.5341H216.409V88.3636H215.256V89.358H216.409V94.1307C216.409 95.4631 217.483 96.0994 218.477 96.0994C218.915 96.0994 219.193 96.0199 219.352 95.9602L219.114 94.9062C219.014 94.9261 218.855 94.9659 218.597 94.9659C218.08 94.9659 217.583 94.8068 217.583 93.8125V89.358H219.213V88.3636ZM46.8295 115.864C47.8885 115.864 48.6342 115.302 49.0767 114.114L52.3281 105.384L51.0455 105.364L48.9375 111.449H48.858L46.75 105.364H45.4773L48.3011 113.04L48.0824 113.636C47.6548 114.8 47.1278 114.909 46.2727 114.69L45.9744 115.724C46.0938 115.784 46.4318 115.864 46.8295 115.864ZM56.7093 113.159C58.7775 113.159 60.1696 111.588 60.1696 109.222C60.1696 106.835 58.7775 105.264 56.7093 105.264C54.6412 105.264 53.2491 106.835 53.2491 109.222C53.2491 111.588 54.6412 113.159 56.7093 113.159ZM56.7093 112.105C55.1383 112.105 54.4224 110.753 54.4224 109.222C54.4224 107.69 55.1383 106.318 56.7093 106.318C58.2804 106.318 58.9963 107.69 58.9963 109.222C58.9963 110.753 58.2804 112.105 56.7093 112.105ZM66.7731 109.878C66.7731 111.31 65.6793 111.966 64.8043 111.966C63.8299 111.966 63.1339 111.25 63.1339 110.136V105.364H61.9606V110.216C61.9606 112.165 62.9947 113.099 64.4265 113.099C65.5799 113.099 66.3356 112.483 66.6935 111.707H66.7731V113H67.9464V105.364H66.7731V109.878ZM70.0953 113H71.2686V108.168C71.2686 107.134 72.084 106.378 73.1976 106.378C73.5108 106.378 73.834 106.438 73.9135 106.457V105.264C73.7793 105.254 73.4711 105.244 73.2971 105.244C72.3823 105.244 71.5868 105.761 71.3084 106.517H71.2289V105.364H70.0953V113ZM82.1254 113.159C83.5969 113.159 84.0941 112.244 84.3526 111.827H84.4918V113H85.6254V102.818H84.4521V106.577H84.3526C84.0941 106.179 83.6367 105.264 82.1452 105.264C80.2163 105.264 78.8839 106.795 78.8839 109.202C78.8839 111.628 80.2163 113.159 82.1254 113.159ZM82.2844 112.105C80.8129 112.105 80.0572 110.812 80.0572 109.182C80.0572 107.571 80.793 106.318 82.2844 106.318C83.7163 106.318 84.4719 107.472 84.4719 109.182C84.4719 110.912 83.6964 112.105 82.2844 112.105ZM90.1843 113.179C91.5167 113.179 92.2127 112.463 92.4513 111.966H92.511V113H93.6843V107.969C93.6843 105.543 91.8349 105.264 90.8604 105.264C89.707 105.264 88.3945 105.662 87.7979 107.054L88.9116 107.452C89.1701 106.895 89.7816 106.298 90.9002 106.298C91.979 106.298 92.511 106.87 92.511 107.849V107.889C92.511 108.456 91.9343 108.406 90.5423 108.585C89.1254 108.769 87.5792 109.082 87.5792 110.832C87.5792 112.324 88.7326 113.179 90.1843 113.179ZM90.3633 112.125C89.4286 112.125 88.7525 111.707 88.7525 110.892C88.7525 109.997 89.5678 109.719 90.4826 109.599C90.9798 109.54 92.3121 109.401 92.511 109.162V110.236C92.511 111.19 91.7553 112.125 90.3633 112.125ZM96.3081 115.864C97.367 115.864 98.1127 115.302 98.5552 114.114L101.807 105.384L100.524 105.364L98.416 111.449H98.3365L96.2285 105.364H94.9558L97.7797 113.04L97.5609 113.636C97.1333 114.8 96.6064 114.909 95.7512 114.69L95.4529 115.724C95.5723 115.784 95.9103 115.864 96.3081 115.864ZM103.736 113.08C104.228 113.08 104.631 112.677 104.631 112.185C104.631 111.692 104.228 111.29 103.736 111.29C103.243 111.29 102.841 111.692 102.841 112.185C102.841 112.677 103.243 113.08 103.736 113.08Z" fill="#1A1353"/>
<defs>
<filter id="filter0_d" x="0" y="0" width="274.172" height="158" filterUnits="userSpaceOnUse" color-interpolation-filters="sRGB">
<feFlood flood-opacity="0" result="BackgroundImageFix"/>
<feColorMatrix in="SourceAlpha" type="matrix" values="0 0 0 0 0 0 0 0 0 0 0 0 0 0 0 0 0 0 127 0" result="hardAlpha"/>
<feOffset dy="10"/>
<feGaussianBlur stdDeviation="8"/>
<feColorMatrix type="matrix" values="0 0 0 0 0.209444 0 0 0 0 0.3393 0 0 0 0 0.433333 0 0 0 0.1 0"/>
<feBlend mode="normal" in2="BackgroundImageFix" result="effect1_dropShadow"/>
<feBlend mode="normal" in="SourceGraphic" in2="effect1_dropShadow" result="shape"/>
</filter>
</defs>
</svg>
