<svg width="32" height="27" viewBox="0 0 32 27" fill="none" xmlns="http://www.w3.org/2000/svg">
<g clip-path="url(#clip0)">
<path d="M29.8667 19.3133V3.06331C29.8667 2.91661 29.8139 2.78966 29.7083 2.68245C29.6028 2.57525 29.4778 2.52165 29.3333 2.52165H2.66667C2.52222 2.52165 2.39722 2.57525 2.29167 2.68245C2.18611 2.78966 2.13333 2.91661 2.13333 3.06331V19.3133C2.13333 19.46 2.18611 19.587 2.29167 19.6942C2.39722 19.8014 2.52222 19.855 2.66667 19.855H29.3333C29.4778 19.855 29.6028 19.8014 29.7083 19.6942C29.8139 19.587 29.8667 19.46 29.8667 19.3133ZM32 3.06331V19.3133C32 20.0581 31.7389 20.6957 31.2167 21.2261C30.6944 21.7565 30.0667 22.0216 29.3333 22.0216H17.0667V24.1883H22.9333C23.0889 24.1883 23.2167 24.2391 23.3167 24.3407C23.4167 24.4422 23.4667 24.572 23.4667 24.73V25.8133C23.4667 25.9713 23.4167 26.1011 23.3167 26.2026C23.2167 26.3042 23.0889 26.355 22.9333 26.355H9.06667C8.91111 26.355 8.78333 26.3042 8.68333 26.2026C8.58333 26.1011 8.53333 25.9713 8.53333 25.8133V24.73C8.53333 24.572 8.58333 24.4422 8.68333 24.3407C8.78333 24.2391 8.91111 24.1883 9.06667 24.1883H14.9333V22.0216H2.66667C1.93333 22.0216 1.30556 21.7565 0.783333 21.2261C0.261111 20.6957 0 20.0581 0 19.3133V3.06331C0 2.31852 0.261111 1.68094 0.783333 1.15055C1.30556 0.620171 1.93333 0.35498 2.66667 0.35498H29.3333C30.0667 0.35498 30.6944 0.620171 31.2167 1.15055C31.7389 1.68094 32 2.31852 32 3.06331Z" fill="#753EF6"/>
</g>
<defs>
<clipPath id="clip0">
<rect width="32" height="26" fill="white" transform="translate(0 0.35498)"/>
</clipPath>
</defs>
</svg>
