<svg width="40" height="40" viewBox="0 0 40 40" fill="none" xmlns="http://www.w3.org/2000/svg">
<path d="M21.6667 33.3333C22.1087 33.3333 22.5326 33.5089 22.8452 33.8215C23.1578 34.134 23.3334 34.5579 23.3334 35C23.3334 35.442 23.1578 35.8659 22.8452 36.1785C22.5326 36.491 22.1087 36.6666 21.6667 36.6666C21.2247 36.6666 20.8007 36.491 20.4882 36.1785C20.1756 35.8659 20 35.442 20 35C20 34.5579 20.1756 34.134 20.4882 33.8215C20.8007 33.5089 21.2247 33.3333 21.6667 33.3333ZM15.8334 31.6666C16.2754 31.6666 16.6993 31.8422 17.0119 32.1548C17.3244 32.4673 17.5 32.8913 17.5 33.3333C17.5 33.7753 17.3244 34.1993 17.0119 34.5118C16.6993 34.8244 16.2754 35 15.8334 35C15.3913 35 14.9674 34.8244 14.6548 34.5118C14.3423 34.1993 14.1667 33.7753 14.1667 33.3333C14.1667 32.8913 14.3423 32.4673 14.6548 32.1548C14.9674 31.8422 15.3913 31.6666 15.8334 31.6666ZM27.5 31.6666C27.942 31.6666 28.366 31.8422 28.6785 32.1548C28.9911 32.4673 29.1667 32.8913 29.1667 33.3333C29.1667 33.7753 28.9911 34.1993 28.6785 34.5118C28.366 34.8244 27.942 35 27.5 35C27.058 35 26.6341 34.8244 26.3215 34.5118C26.0089 34.1993 25.8334 33.7753 25.8334 33.3333C25.8334 32.8913 26.0089 32.4673 26.3215 32.1548C26.6341 31.8422 27.058 31.6666 27.5 31.6666ZM21.67 10.015C26.95 10.015 29.9467 13.51 30.3817 17.7316H30.515C31.3221 17.7305 32.1216 17.8885 32.8676 18.1964C33.6137 18.5043 34.2918 18.9561 34.8632 19.5262C35.4346 20.0962 35.8882 20.7732 36.1979 21.5185C36.5076 22.2638 36.6675 23.0629 36.6684 23.87C36.6673 24.6769 36.5072 25.4758 36.1974 26.2209C35.8876 26.9661 35.434 27.6429 34.8626 28.2127C34.2912 28.7825 33.6132 29.2343 32.8672 29.5421C32.1213 29.8499 31.322 30.0077 30.515 30.0066H12.8234C12.0164 30.0077 11.2171 29.8499 10.4711 29.5421C9.72516 29.2343 9.04713 28.7825 8.47574 28.2127C7.90435 27.6429 7.45079 26.9661 7.14096 26.2209C6.83114 25.4758 6.67111 24.6769 6.67002 23.87C6.67089 23.0629 6.83076 22.2638 7.14049 21.5185C7.45021 20.7732 7.90374 20.0962 8.47515 19.5262C9.04656 18.9561 9.72467 18.5043 10.4707 18.1964C11.2168 17.8885 12.0162 17.7305 12.8234 17.7316H12.9567C13.395 13.4816 16.39 10.015 21.67 10.015ZM21.67 12.51C18.2167 12.51 15.2084 15.2333 15.2084 18.9933C15.2084 19.5883 14.6767 20.0566 14.0684 20.0566H12.9184C10.815 20.0566 9.11168 21.7233 9.11168 23.7833C9.11168 25.8416 10.815 27.51 12.9167 27.51H30.4217C32.5234 27.51 34.2267 25.8433 34.2267 23.7833C34.2267 21.725 32.5234 20.0566 30.4217 20.0566H29.2717C28.6617 20.0566 28.13 19.59 28.13 18.9933C28.13 15.185 25.1217 12.51 21.67 12.51ZM7.27835 16.94C7.39425 17.2191 7.40509 17.5308 7.30888 17.8173C7.21266 18.1038 7.0159 18.3457 6.75502 18.4983L6.60168 18.5733L5.05835 19.2133C4.76609 19.3324 4.43959 19.3366 4.14439 19.2249C3.84919 19.1133 3.60715 18.8941 3.46685 18.6114C3.32655 18.3287 3.29839 18.0034 3.38801 17.7008C3.47763 17.3982 3.6784 17.1407 3.95002 16.98L4.10168 16.9033L5.64502 16.2633C5.79669 16.2005 5.95926 16.1681 6.12343 16.1681C6.28761 16.1681 6.45017 16.2005 6.60185 16.2633C6.75352 16.3261 6.89133 16.4182 7.00741 16.5343C7.12348 16.6504 7.21555 16.7883 7.27835 16.94ZM18.09 8.88497L17.805 8.98163C16.9382 9.28545 16.1189 9.71081 15.3717 10.245C14.5692 9.98431 13.7056 9.97948 12.9003 10.2312C12.095 10.4828 11.3878 10.9786 10.8765 11.6498C10.3653 12.321 10.0753 13.1345 10.0467 13.9777C10.018 14.821 10.2522 15.6523 10.7167 16.3566C9.9038 16.5846 9.13405 16.945 8.43835 17.4233C7.67447 16.1103 7.38913 14.5733 7.6309 13.0736C7.87267 11.574 8.62662 10.2045 9.76442 9.19809C10.9022 8.19173 12.3536 7.61072 13.8715 7.55393C15.3895 7.49715 16.8802 7.9681 18.09 8.88663V8.88497ZM4.90168 8.93663L5.07668 8.99497L6.62002 9.63497C6.90946 9.75698 7.14235 9.98349 7.27236 10.2694C7.40237 10.5554 7.41997 10.8798 7.32165 11.1781C7.22333 11.4764 7.0163 11.7268 6.74176 11.8794C6.46722 12.032 6.14528 12.0756 5.84002 12.0016L5.66335 11.945L4.12002 11.305C3.82981 11.1833 3.59616 10.9567 3.46572 10.6703C3.33528 10.384 3.31764 10.0589 3.41633 9.76013C3.51501 9.46133 3.72277 9.21075 3.9981 9.05841C4.27344 8.90607 4.59611 8.86318 4.90168 8.9383V8.93663ZM11.26 3.95997L11.335 4.11163L11.975 5.65497C12.0959 5.94749 12.1013 6.27496 11.9901 6.57129C11.8789 6.86763 11.6595 7.11076 11.3761 7.25163C11.0926 7.39249 10.7663 7.4206 10.463 7.33028C10.1597 7.23995 9.90189 7.03793 9.74168 6.76497L9.66502 6.61163L9.02502 5.0683C8.9059 4.77604 8.90174 4.44954 9.01337 4.15434C9.12501 3.85914 9.34418 3.6171 9.62689 3.4768C9.90959 3.3365 10.2349 3.30834 10.5375 3.39796C10.8401 3.48758 11.0976 3.68835 11.2584 3.95997H11.26ZM18.515 3.4283C18.7917 3.54315 19.018 3.75357 19.1526 4.02124C19.2872 4.28891 19.3212 4.59602 19.2484 4.88663L19.1917 5.06163L18.5517 6.60497C18.4297 6.89441 18.2032 7.1273 17.9172 7.25731C17.6313 7.38732 17.3069 7.40492 17.0086 7.3066C16.7103 7.20828 16.4599 7.00125 16.3073 6.72671C16.1547 6.45217 16.111 6.13023 16.185 5.82497L16.2434 5.6483L16.8817 4.10497C16.9445 3.95328 17.0366 3.81545 17.1526 3.69935C17.2687 3.58325 17.4065 3.49115 17.5582 3.42831C17.7099 3.36547 17.8724 3.33313 18.0366 3.33313C18.2008 3.33313 18.3633 3.36547 18.515 3.4283Z" fill="url(#paint0_linear)"/>
<defs>
<linearGradient id="paint0_linear" x1="20.0024" y1="3.33313" x2="20.0024" y2="36.6666" gradientUnits="userSpaceOnUse">
<stop stop-color="#4A81FE"/>
<stop offset="1" stop-color="#5FBAFA"/>
</linearGradient>
</defs>
</svg>
