<svg width="146" height="49" viewBox="0 0 146 49" fill="none" xmlns="http://www.w3.org/2000/svg">
<path d="M59.3647 28.8588C59.3647 28.0898 59.4431 27.3758 59.5922 26.7166C59.7492 26.0575 60.0003 25.4846 60.3691 24.9824C60.73 24.4881 61.2087 24.0957 61.8051 23.8132C62.4014 23.5307 63.1234 23.3817 63.9787 23.3817C64.2612 23.3817 64.5594 23.3973 64.8654 23.4287C65.1714 23.4601 65.4382 23.4994 65.6579 23.5464V19.1992C65.2813 19.0894 64.9439 19.0344 64.6378 19.0344C64.0415 19.0344 63.4765 19.1207 62.9272 19.3012C62.3779 19.4739 61.86 19.725 61.3813 20.0388C60.8948 20.3606 60.4711 20.7451 60.0944 21.1923C59.7178 21.6396 59.4274 22.134 59.2077 22.6597H59.1371V19.4974H54.6879V36.5332H59.3647V28.8588Z" fill="white"/>
<path d="M57.5047 42.34H55.1427V40.4175H54.5464V44.8981H55.1427V42.8422H57.5047V44.8981H58.101V40.4175H57.5047V42.34Z" fill="white"/>
<path d="M62.5198 41.0217C62.3393 40.802 62.1196 40.6293 61.845 40.5038C61.5782 40.3704 61.2643 40.3076 60.9112 40.3076C60.5581 40.3076 60.2442 40.3704 59.9774 40.5038C59.7106 40.6372 59.483 40.8098 59.3025 41.0217C59.1221 41.2414 58.9887 41.4925 58.8945 41.775C58.8003 42.0575 58.7611 42.3478 58.7611 42.6539C58.7611 42.9599 58.8082 43.2502 58.8945 43.5327C58.9808 43.8152 59.1221 44.0663 59.3025 44.286C59.483 44.5058 59.7027 44.6784 59.9774 44.8039C60.252 44.9295 60.5581 44.9923 60.9112 44.9923C61.2643 44.9923 61.5782 44.9295 61.845 44.8039C62.1118 44.6784 62.3393 44.5058 62.5198 44.286C62.7003 44.0663 62.8337 43.8152 62.9279 43.5327C63.022 43.2502 63.0613 42.9599 63.0613 42.6539C63.0613 42.3478 63.0142 42.0575 62.9279 41.775C62.8415 41.4925 62.7003 41.2414 62.5198 41.0217ZM62.3786 43.3287C62.3236 43.5484 62.2295 43.7446 62.1039 43.9251C61.9784 44.0977 61.8136 44.2389 61.6174 44.3488C61.4212 44.4587 61.1858 44.5058 60.9112 44.5058C60.6365 44.5058 60.4011 44.4508 60.205 44.3488C60.0088 44.2389 59.844 44.0977 59.7184 43.9251C59.5929 43.7524 59.4987 43.5484 59.4438 43.3287C59.3889 43.109 59.3575 42.8893 59.3575 42.6617C59.3575 42.4341 59.3889 42.2144 59.4438 41.9947C59.4987 41.775 59.5929 41.5788 59.7184 41.3983C59.844 41.2257 60.0088 41.0845 60.205 40.9746C60.4011 40.8648 60.6365 40.8177 60.9112 40.8177C61.1858 40.8177 61.4212 40.8726 61.6174 40.9746C61.8136 41.0845 61.9784 41.2257 62.1039 41.3983C62.2295 41.571 62.3236 41.775 62.3786 41.9947C62.4335 42.2144 62.4649 42.4341 62.4649 42.6617C62.4649 42.8893 62.4335 43.109 62.3786 43.3287Z" fill="white"/>
<path d="M67.5115 19.4974V36.5332H72.1883V28.851C72.1883 28.082 72.2667 27.3679 72.4158 26.7088C72.5728 26.0497 72.8239 25.4768 73.1927 24.9746C73.5536 24.4803 74.0323 24.0879 74.6287 23.8054C75.2251 23.5229 75.947 23.3738 76.8023 23.3738C77.0848 23.3738 77.383 23.3895 77.689 23.4209C77.995 23.4523 78.2618 23.4915 78.4816 23.5386V19.1914C78.1049 19.0815 77.7675 19.0266 77.4614 19.0266C76.8651 19.0266 76.3001 19.1129 75.7508 19.2934C75.2015 19.466 74.6836 19.7171 74.2049 20.031C73.7184 20.3527 73.2947 20.7373 72.918 21.1845C72.5414 21.6318 72.251 22.1262 72.0313 22.6519H71.9686V19.4896H67.5115V19.4974Z" fill="white"/>
<path d="M89.5765 33.3865C89.2783 33.5513 88.9487 33.669 88.5877 33.7475C88.2268 33.8259 87.8815 33.8652 87.5519 33.8652C87.089 33.8652 86.6495 33.8103 86.218 33.7004C85.7864 33.5905 85.4097 33.4179 85.0801 33.1903C84.7506 32.9628 84.4838 32.6646 84.2719 32.3036C84.06 31.9427 83.958 31.5111 83.958 31.001H79.5088C79.5559 32.1467 79.807 33.0962 80.2856 33.8495C80.7565 34.6106 81.3607 35.2149 82.0983 35.6778C82.8359 36.1408 83.6755 36.4704 84.6172 36.6666C85.5588 36.8627 86.5318 36.9647 87.5206 36.9647C88.4857 36.9647 89.4352 36.8706 90.369 36.6823C91.3028 36.4939 92.1346 36.1722 92.8565 35.7092C93.5784 35.2463 94.1669 34.6342 94.6221 33.8809C95.0694 33.1197 95.2969 32.1859 95.2969 31.0638C95.2969 30.2713 95.14 29.6121 94.8339 29.0707C94.5279 28.5292 94.1199 28.082 93.6177 27.721C93.1154 27.36 92.5348 27.0697 91.8835 26.85C91.2322 26.6303 90.573 26.4419 89.8903 26.2928C89.2312 26.1359 88.5799 25.9947 87.9443 25.8613C87.3087 25.7279 86.7437 25.5788 86.2493 25.414C85.755 25.2492 85.3548 25.0373 85.0488 24.7705C84.7427 24.5037 84.5858 24.1663 84.5858 23.7504C84.5858 23.3973 84.6721 23.1227 84.8526 22.9108C85.0252 22.6989 85.2449 22.542 85.496 22.4321C85.7471 22.3223 86.0296 22.2517 86.3357 22.2203C86.6417 22.1889 86.932 22.1732 87.191 22.1732C88.0228 22.1732 88.7525 22.3301 89.3646 22.6519C89.9767 22.9736 90.3219 23.5778 90.3847 24.4802H94.8339C94.7476 23.4287 94.473 22.5498 94.0257 21.8593C93.5784 21.1688 93.0056 20.6116 92.3308 20.1957C91.6481 19.7799 90.8712 19.4817 90.008 19.309C89.137 19.1364 88.2425 19.0422 87.3244 19.0422C86.3984 19.0422 85.5039 19.1207 84.625 19.2855C83.7462 19.4503 82.9536 19.7328 82.2552 20.1408C81.549 20.5489 80.984 21.106 80.5603 21.8044C80.1287 22.5106 79.9168 23.4052 79.9168 24.5037C79.9168 25.2492 80.0738 25.8848 80.3798 26.4027C80.6858 26.9206 81.0939 27.3443 81.5961 27.6896C82.0983 28.0349 82.679 28.3017 83.3303 28.5135C83.9816 28.7254 84.6407 28.9059 85.3234 29.055C86.9948 29.4081 88.2974 29.7612 89.2312 30.1065C90.165 30.4596 90.6358 30.9853 90.6358 31.6916C90.6358 32.1075 90.5338 32.4527 90.3376 32.7274C90.1179 33.002 89.8668 33.2217 89.5765 33.3865Z" fill="white"/>
<path d="M107.39 22.6282V19.4973H103.961V14.3889H99.2839V19.4973H96.4511V22.6282H99.2839V32.6802C99.2839 33.5355 99.4251 34.2261 99.7155 34.7597C99.9979 35.2854 100.39 35.6935 100.885 35.9759C101.379 36.2584 101.952 36.4546 102.595 36.5488C103.247 36.6508 103.929 36.6979 104.651 36.6979C105.114 36.6979 105.585 36.69 106.072 36.6665C106.558 36.6429 106.997 36.6037 107.39 36.5331V32.9078C107.17 32.9549 106.943 32.9863 106.699 33.0098C106.456 33.0333 106.205 33.0412 105.938 33.0412C105.146 33.0412 104.62 32.9078 104.353 32.6488C104.086 32.3899 103.961 31.8563 103.961 31.0637V22.6282H107.39Z" fill="white"/>
<path d="M125.446 25.3591C125.14 24.1507 124.638 23.0757 123.947 22.1262C123.257 21.1845 122.37 20.4312 121.295 19.8662C120.22 19.3091 118.956 19.0266 117.505 19.0266C116.21 19.0266 115.025 19.2542 113.958 19.7171C112.891 20.1801 111.973 20.8079 111.204 21.6161C110.435 22.4165 109.838 23.366 109.422 24.4646C109.007 25.5631 108.795 26.748 108.795 28.0271C108.795 29.3454 108.999 30.5538 109.407 31.6524C109.815 32.751 110.388 33.6926 111.141 34.4852C111.886 35.2777 112.797 35.8898 113.879 36.3135C114.955 36.7451 116.163 36.957 117.505 36.957C119.435 36.957 121.083 36.5175 122.448 35.6387C123.814 34.7598 124.818 33.3003 125.477 31.2522H121.358C121.201 31.778 120.785 32.2802 120.102 32.751C119.419 33.2218 118.611 33.4572 117.662 33.4572C116.343 33.4572 115.331 33.1198 114.633 32.4371C113.927 31.7544 113.542 30.6558 113.479 29.1414H125.776C125.862 27.8309 125.752 26.5676 125.446 25.3591ZM113.487 26.1831C113.511 25.8535 113.581 25.4768 113.699 25.0609C113.817 24.6451 114.029 24.2448 114.327 23.876C114.625 23.4994 115.017 23.1855 115.512 22.9344C116.006 22.6833 116.626 22.5578 117.371 22.5578C118.517 22.5578 119.365 22.8638 119.922 23.4837C120.479 24.0958 120.871 24.9982 121.091 26.1831H113.487Z" fill="white"/>
<path d="M139.554 19.4973L133.653 25.6258V13H128.969V36.5331H133.653V30.6714L135.466 28.9215L140.143 36.5331H145.816L138.66 25.7592L145.086 19.4973H139.554Z" fill="white"/>
<path d="M65.9649 44.184L64.5525 40.4175H63.7364V44.8981H64.3014V41.1708H64.3171L65.7138 44.8981H66.2239L67.6206 41.1708H67.6363V44.8981H68.2013V40.4175H67.3852L65.9649 44.184Z" fill="white"/>
<path d="M69.7225 42.8422H72.053V42.34H69.7225V40.9197H72.2257V40.4175H69.1261V44.8981H72.2414V44.3959H69.7225V42.8422Z" fill="white"/>
<path d="M75.8055 40.4175L74.0635 44.8981H74.6756L75.1778 43.5484H77.0767L77.5633 44.8981H78.2224L76.4725 40.4175H75.8055ZM75.3583 43.0462L76.1194 40.9589H76.1351L76.8806 43.0462H75.3583Z" fill="white"/>
<path d="M81.572 43.2816C81.572 43.6818 81.4699 43.9879 81.2738 44.1919C81.0776 44.3959 80.7873 44.5058 80.4028 44.5058C80.0026 44.5058 79.6965 44.4037 79.4768 44.1919C79.2649 43.9879 79.1551 43.6818 79.1551 43.2816V40.4175H78.5587V43.2816C78.5587 43.878 78.7235 44.3174 79.0452 44.5921C79.367 44.8667 79.8221 45.0001 80.3949 45.0001C80.9599 45.0001 81.3915 44.8589 81.6975 44.5685C82.0035 44.2782 82.1526 43.8545 82.1526 43.2816V40.4175H81.5563V43.2816H81.572Z" fill="white"/>
<path d="M82.584 40.9197H84.0749V44.8981H84.6712V40.9197H86.17V40.4175H82.584V40.9197Z" fill="white"/>
<path d="M90.1025 41.0217C89.9221 40.802 89.7023 40.6293 89.4277 40.5038C89.1609 40.3704 88.847 40.3076 88.4939 40.3076C88.1408 40.3076 87.8269 40.3704 87.5601 40.5038C87.2933 40.6372 87.0658 40.8098 86.8853 41.0217C86.7048 41.2414 86.5714 41.4925 86.4772 41.775C86.3831 42.0575 86.3438 42.3478 86.3438 42.6539C86.3438 42.9599 86.3909 43.2502 86.4772 43.5327C86.5636 43.8152 86.7048 44.0663 86.8853 44.286C87.0658 44.5058 87.2855 44.6784 87.5601 44.8039C87.8348 44.9295 88.1408 44.9923 88.4939 44.9923C88.847 44.9923 89.1609 44.9295 89.4277 44.8039C89.6945 44.6784 89.9221 44.5058 90.1025 44.286C90.283 44.0663 90.4164 43.8152 90.5106 43.5327C90.6048 43.2502 90.644 42.9599 90.644 42.6539C90.644 42.3478 90.5969 42.0575 90.5106 41.775C90.4243 41.4925 90.283 41.2414 90.1025 41.0217ZM89.9613 43.3287C89.9064 43.5484 89.8122 43.7446 89.6867 43.9251C89.5611 44.0977 89.3963 44.2389 89.2001 44.3488C89.004 44.4587 88.7686 44.5058 88.4939 44.5058C88.2193 44.5058 87.9839 44.4508 87.7877 44.3488C87.5915 44.2389 87.4267 44.0977 87.3012 43.9251C87.1756 43.7524 87.0815 43.5484 87.0265 43.3287C86.9716 43.109 86.9402 42.8893 86.9402 42.6617C86.9402 42.4341 86.9716 42.2144 87.0265 41.9947C87.0815 41.775 87.1756 41.5788 87.3012 41.3983C87.4267 41.2257 87.5915 41.0845 87.7877 40.9746C87.9839 40.8648 88.2193 40.8177 88.4939 40.8177C88.7686 40.8177 89.004 40.8726 89.2001 40.9746C89.3963 41.0845 89.5611 41.2257 89.6867 41.3983C89.8122 41.571 89.9064 41.775 89.9613 41.9947C90.0162 42.2144 90.0476 42.4341 90.0476 42.6617C90.0476 42.8893 90.0162 43.109 89.9613 43.3287Z" fill="white"/>
<path d="M93.5477 44.184L92.1352 40.4175H91.3192V44.8981H91.8841V41.1708H91.8998L93.2966 44.8981H93.8066L95.2113 41.1708H95.2191V44.8981H95.7841V40.4175H94.968L93.5477 44.184Z" fill="white"/>
<path d="M97.9329 40.4175L96.1909 44.8981H96.8029L97.3051 43.5484H99.2041L99.6906 44.8981H100.35L98.5999 40.4175H97.9329ZM97.4856 43.0462L98.2468 40.9589H98.2625L99.0079 43.0462H97.4856Z" fill="white"/>
<path d="M99.6678 40.9197H101.159V44.8981H101.755V40.9197H103.246V40.4175H99.6678V40.9197Z" fill="white"/>
<path d="M104.305 40.4175H103.708V44.8981H104.305V40.4175Z" fill="white"/>
<path d="M108.745 41.0217C108.565 40.802 108.345 40.6293 108.071 40.5038C107.804 40.3704 107.49 40.3076 107.137 40.3076C106.784 40.3076 106.47 40.3704 106.203 40.5038C105.936 40.6372 105.709 40.8098 105.528 41.0217C105.348 41.2414 105.214 41.4925 105.12 41.775C105.026 42.0575 104.987 42.3478 104.987 42.6539C104.987 42.9599 105.034 43.2502 105.12 43.5327C105.206 43.8152 105.348 44.0663 105.528 44.286C105.709 44.5058 105.928 44.6784 106.203 44.8039C106.478 44.9295 106.784 44.9923 107.137 44.9923C107.49 44.9923 107.804 44.9295 108.071 44.8039C108.337 44.6784 108.565 44.5058 108.745 44.286C108.926 44.0663 109.059 43.8152 109.153 43.5327C109.248 43.2502 109.287 42.9599 109.287 42.6539C109.287 42.3478 109.24 42.0575 109.153 41.775C109.067 41.4925 108.926 41.2414 108.745 41.0217ZM108.604 43.3287C108.549 43.5484 108.455 43.7446 108.33 43.9251C108.204 44.0977 108.039 44.2389 107.843 44.3488C107.647 44.4587 107.411 44.5058 107.137 44.5058C106.862 44.5058 106.627 44.4508 106.431 44.3488C106.234 44.2389 106.07 44.0977 105.944 43.9251C105.819 43.7524 105.724 43.5484 105.669 43.3287C105.614 43.109 105.583 42.8893 105.583 42.6617C105.583 42.4341 105.614 42.2144 105.669 41.9947C105.724 41.775 105.819 41.5788 105.944 41.3983C106.07 41.2257 106.234 41.0845 106.431 40.9746C106.627 40.8648 106.862 40.8177 107.137 40.8177C107.411 40.8177 107.647 40.8726 107.843 40.9746C108.039 41.0845 108.204 41.2257 108.33 41.3983C108.455 41.571 108.549 41.775 108.604 41.9947C108.659 42.2144 108.69 42.4341 108.69 42.6617C108.69 42.8893 108.659 43.109 108.604 43.3287Z" fill="white"/>
<path d="M112.952 44.0506H112.944L110.582 40.4175H109.947V44.8981H110.512V41.3042H110.528L112.866 44.8981H113.517V40.4175H112.952V44.0506Z" fill="white"/>
<path d="M119.002 42.748C118.868 42.6539 118.711 42.5754 118.539 42.5205C118.366 42.4655 118.194 42.4185 118.013 42.3714C117.833 42.3321 117.66 42.2929 117.487 42.2537C117.315 42.2144 117.158 42.1752 117.024 42.1203C116.891 42.0653 116.781 41.9947 116.695 41.9084C116.616 41.8221 116.569 41.7122 116.569 41.571C116.569 41.4219 116.601 41.3042 116.656 41.2022C116.71 41.108 116.789 41.0217 116.883 40.9668C116.977 40.9118 117.087 40.8648 117.205 40.8412C117.322 40.8177 117.448 40.802 117.574 40.802C117.88 40.802 118.139 40.8726 118.335 41.0217C118.531 41.1708 118.649 41.3983 118.68 41.7201H119.245C119.237 41.4768 119.19 41.2571 119.104 41.0845C119.017 40.9118 118.9 40.7627 118.751 40.645C118.602 40.5273 118.429 40.441 118.233 40.3861C118.037 40.3312 117.825 40.3076 117.589 40.3076C117.385 40.3076 117.181 40.3312 116.993 40.3861C116.797 40.441 116.624 40.5195 116.475 40.6215C116.326 40.7313 116.2 40.8648 116.106 41.0295C116.012 41.1943 115.965 41.3905 115.965 41.6181C115.965 41.8221 116.004 41.9947 116.091 42.1281C116.177 42.2615 116.279 42.3714 116.42 42.4577C116.561 42.544 116.71 42.6146 116.883 42.6617C117.056 42.7088 117.228 42.7637 117.409 42.803C117.589 42.8422 117.762 42.8814 117.935 42.9207C118.107 42.9599 118.264 43.007 118.398 43.0698C118.531 43.1325 118.641 43.211 118.727 43.3052C118.813 43.3993 118.853 43.5249 118.853 43.6818C118.853 43.8466 118.821 43.98 118.751 44.082C118.68 44.184 118.594 44.2703 118.484 44.3331C118.374 44.3959 118.256 44.4351 118.115 44.4587C117.982 44.4822 117.84 44.4979 117.707 44.4979C117.542 44.4979 117.377 44.4744 117.22 44.4351C117.064 44.3959 116.922 44.3253 116.805 44.2389C116.687 44.1526 116.593 44.0428 116.514 43.9015C116.436 43.7603 116.404 43.6034 116.404 43.415H115.839C115.839 43.6897 115.887 43.9251 115.989 44.1212C116.091 44.3174 116.224 44.4822 116.389 44.6078C116.561 44.7333 116.758 44.8275 116.977 44.8903C117.205 44.953 117.44 44.9844 117.691 44.9844C117.895 44.9844 118.099 44.9609 118.311 44.9138C118.515 44.8667 118.704 44.7882 118.876 44.6784C119.041 44.5685 119.182 44.4351 119.284 44.2625C119.394 44.0899 119.441 43.8858 119.441 43.6504C119.441 43.4307 119.402 43.2424 119.316 43.1011C119.229 42.9599 119.135 42.85 119.002 42.748Z" fill="white"/>
<path d="M121.686 42.5519L120.344 40.4175H119.63L121.364 43.0619V44.8981H121.96V43.0619L123.679 40.4175H122.996L121.686 42.5519Z" fill="white"/>
<path d="M127.014 42.748C126.881 42.6539 126.724 42.5754 126.551 42.5205C126.379 42.4655 126.206 42.4185 126.026 42.3714C125.845 42.3321 125.672 42.2929 125.5 42.2537C125.327 42.2144 125.17 42.1752 125.037 42.1203C124.903 42.0653 124.794 41.9947 124.707 41.9084C124.629 41.8221 124.582 41.7122 124.582 41.571C124.582 41.4219 124.613 41.3042 124.668 41.2022C124.723 41.108 124.801 41.0217 124.896 40.9668C124.99 40.9118 125.1 40.8648 125.217 40.8412C125.335 40.8177 125.461 40.802 125.586 40.802C125.892 40.802 126.151 40.8726 126.347 41.0217C126.543 41.1708 126.661 41.3983 126.693 41.7201H127.258C127.25 41.4768 127.203 41.2571 127.116 41.0845C127.03 40.9118 126.912 40.7627 126.763 40.645C126.614 40.5273 126.441 40.441 126.245 40.3861C126.049 40.3312 125.837 40.3076 125.602 40.3076C125.398 40.3076 125.194 40.3312 125.005 40.3861C124.809 40.441 124.637 40.5195 124.488 40.6215C124.338 40.7313 124.213 40.8648 124.119 41.0295C124.025 41.1943 123.978 41.3905 123.978 41.6181C123.978 41.8221 124.017 41.9947 124.103 42.1281C124.189 42.2615 124.291 42.3714 124.433 42.4577C124.574 42.544 124.723 42.6146 124.896 42.6617C125.068 42.7088 125.241 42.7637 125.421 42.803C125.602 42.8422 125.774 42.8814 125.947 42.9207C126.12 42.9599 126.277 43.007 126.41 43.0698C126.543 43.1325 126.653 43.211 126.74 43.3052C126.826 43.3993 126.865 43.5249 126.865 43.6818C126.865 43.8466 126.834 43.98 126.763 44.082C126.693 44.184 126.606 44.2703 126.496 44.3331C126.387 44.3959 126.269 44.4351 126.128 44.4587C125.994 44.4822 125.853 44.4979 125.72 44.4979C125.555 44.4979 125.39 44.4744 125.233 44.4351C125.076 44.3959 124.935 44.3253 124.817 44.2389C124.699 44.1526 124.605 44.0428 124.527 43.9015C124.448 43.7603 124.417 43.6034 124.417 43.415H123.852C123.852 43.6897 123.899 43.9251 124.001 44.1212C124.103 44.3174 124.236 44.4822 124.401 44.6078C124.574 44.7333 124.77 44.8275 124.99 44.8903C125.217 44.953 125.453 44.9844 125.704 44.9844C125.908 44.9844 126.112 44.9609 126.324 44.9138C126.528 44.8667 126.716 44.7882 126.889 44.6784C127.054 44.5685 127.195 44.4351 127.297 44.2625C127.407 44.0899 127.454 43.8858 127.454 43.6504C127.454 43.4307 127.414 43.2424 127.328 43.1011C127.242 42.9599 127.148 42.85 127.014 42.748Z" fill="white"/>
<path d="M127.642 40.9197H129.141V44.8981H129.737V40.9197H131.228V40.4175H127.642V40.9197Z" fill="white"/>
<path d="M132.256 42.8422H134.587V42.34H132.256V40.9197H134.759V40.4175H131.66V44.8981H134.775V44.3959H132.256V42.8422Z" fill="white"/>
<path d="M137.679 44.184L136.266 40.4175H135.45V44.8981H136.015V41.1708H136.023L137.427 44.8981H137.93L139.334 41.1708H139.342V44.8981H139.907V40.4175H139.091L137.679 44.184Z" fill="white"/>
<path d="M143.737 42.748C143.603 42.6539 143.446 42.5754 143.274 42.5205C143.101 42.4655 142.929 42.4185 142.748 42.3714C142.568 42.3321 142.395 42.2929 142.222 42.2537C142.05 42.2144 141.893 42.1752 141.759 42.1203C141.626 42.0653 141.516 41.9947 141.43 41.9084C141.351 41.8221 141.304 41.7122 141.304 41.571C141.304 41.4219 141.336 41.3042 141.391 41.2022C141.445 41.108 141.524 41.0217 141.618 40.9668C141.712 40.9118 141.822 40.8648 141.94 40.8412C142.058 40.8177 142.183 40.802 142.309 40.802C142.615 40.802 142.874 40.8726 143.07 41.0217C143.266 41.1708 143.384 41.3983 143.415 41.7201H143.98C143.972 41.4768 143.925 41.2571 143.839 41.0845C143.752 40.9118 143.635 40.7627 143.486 40.645C143.337 40.5273 143.164 40.441 142.968 40.3861C142.772 40.3312 142.56 40.3076 142.324 40.3076C142.12 40.3076 141.916 40.3312 141.728 40.3861C141.532 40.441 141.359 40.5195 141.21 40.6215C141.061 40.7313 140.935 40.8648 140.841 41.0295C140.747 41.1943 140.7 41.3905 140.7 41.6181C140.7 41.8221 140.739 41.9947 140.826 42.1281C140.912 42.2615 141.014 42.3714 141.155 42.4577C141.296 42.544 141.445 42.6146 141.618 42.6617C141.791 42.7088 141.963 42.7637 142.144 42.803C142.324 42.8422 142.497 42.8814 142.67 42.9207C142.842 42.9599 142.999 43.007 143.133 43.0698C143.266 43.1325 143.376 43.211 143.462 43.3052C143.548 43.3993 143.588 43.5249 143.588 43.6818C143.588 43.8466 143.556 43.98 143.486 44.082C143.415 44.184 143.329 44.2703 143.219 44.3331C143.109 44.3959 142.991 44.4351 142.85 44.4587C142.717 44.4822 142.575 44.4979 142.442 44.4979C142.277 44.4979 142.112 44.4744 141.955 44.4351C141.799 44.3959 141.657 44.3253 141.54 44.2389C141.422 44.1526 141.328 44.0428 141.249 43.9015C141.171 43.7603 141.139 43.6034 141.139 43.415H140.574C140.574 43.6897 140.622 43.9251 140.724 44.1212C140.826 44.3174 140.959 44.4822 141.124 44.6078C141.296 44.7333 141.493 44.8275 141.712 44.8903C141.94 44.953 142.175 44.9844 142.426 44.9844C142.63 44.9844 142.834 44.9609 143.046 44.9138C143.25 44.8667 143.439 44.7882 143.611 44.6784C143.776 44.5685 143.917 44.4351 144.019 44.2625C144.129 44.0899 144.176 43.8858 144.176 43.6504C144.176 43.4307 144.137 43.2424 144.051 43.1011C143.964 42.9599 143.87 42.85 143.737 42.748Z" fill="white"/>
<path d="M144.082 38.6519H54.5555C54.4457 38.6519 54.3594 38.7382 54.3594 38.848C54.3594 38.9579 54.4457 39.0442 54.5555 39.0442H144.082C144.192 39.0442 144.278 38.9579 144.278 38.848C144.278 38.7382 144.192 38.6519 144.082 38.6519Z" fill="white"/>
<path d="M12.7938 42.9565C13.1496 43.1306 13.5303 43.2156 13.9068 43.2156C14.8171 43.2156 15.6902 42.7258 16.1287 41.8757C16.7453 40.6775 16.2487 39.2162 15.024 38.6171C8.82158 35.5731 4.96938 29.4648 4.96938 22.6805C4.96524 12.8521 13.1372 4.8575 23.1794 4.8575C33.2216 4.8575 41.3935 12.8521 41.3935 22.6764C41.3935 29.3919 37.5951 35.4719 31.4796 38.5402C30.259 39.1515 29.779 40.6168 30.4038 41.8109C31.0286 43.0051 32.5265 43.4746 33.7471 42.8634C41.5259 38.9572 46.3588 31.2216 46.3588 22.6764C46.3588 10.1724 35.9607 0 23.1794 0C10.398 0 0 10.1724 0 22.6764C0 31.3106 4.90317 39.0786 12.7938 42.9565Z" fill="#4B7EF6"/>
<path d="M23.1788 48.999C24.5484 48.999 25.6614 47.9101 25.6614 46.5702V29.8604C25.6614 28.5205 24.5484 27.4316 23.1788 27.4316C21.8092 27.4316 20.6962 28.5205 20.6962 29.8604V46.5742C20.6962 47.9141 21.8092 48.999 23.1788 48.999Z" fill="#4B7EF6"/>
<path d="M29.3078 18.4385V31.0478C29.3078 31.9423 30.0485 32.6669 30.9629 32.6669C31.8773 32.6669 32.618 31.9423 32.618 31.0478V20.2762L34.7696 21.6606C35.5309 22.1504 36.5612 21.944 37.0619 21.1992C37.5625 20.4503 37.3515 19.4464 36.5902 18.9566L23.1757 10.3184L9.77788 19.0214C9.01654 19.5152 8.80966 20.5191 9.31446 21.2639C9.63306 21.7335 10.1585 21.9885 10.6964 21.9885C11.0109 21.9885 11.3295 21.8995 11.6109 21.7173L13.0839 20.7579V31.0478C13.0839 31.9423 13.8245 32.6669 14.739 32.6669C15.6534 32.6669 16.3941 31.9423 16.3941 31.0478V18.6085L23.184 14.2003L29.3368 18.1632C29.3202 18.2523 29.3078 18.3454 29.3078 18.4385Z" fill="#54CE40" fill-opacity="0.75"/>
</svg>
