<svg width="121" height="33" viewBox="0 0 121 33" fill="none" xmlns="http://www.w3.org/2000/svg">
<path d="M20.9913 20.3988C23.6551 18.8346 25.6744 17.6428 25.8485 17.5501C26.4053 17.2335 26.9803 16.3954 25.8485 15.7444C25.4831 15.5396 23.5156 14.3849 20.9913 12.8957L17.4919 16.6751L20.9913 20.3987V20.3988Z" fill="#FFD900"/>
<path d="M17.4923 16.6747L6.34998 28.684C6.61151 28.721 6.90678 28.6468 7.25489 28.4422C7.98575 28.0144 15.7336 23.4896 20.9917 20.3993L17.4923 16.6747Z" fill="#F43249"/>
<path d="M17.491 16.6763L20.9903 12.9155C20.9903 12.9155 8.03724 5.35579 7.25353 4.90954C6.95827 4.72252 6.62738 4.66697 6.3313 4.72252L17.491 16.6763Z" fill="#00EE76"/>
<path d="M17.4939 16.6733L6.33425 4.71957C5.88134 4.83156 5.4986 5.25947 5.4986 6.13461V27.2675C5.4986 28.0685 5.79476 28.6455 6.35157 28.7011L17.4939 16.6733Z" fill="#00D3FF"/>
<path d="M41.9453 21.8964C45.0312 21.8964 46.8594 20.0605 46.8594 16.998V15.7792H42.0938V17.3495H44.8906L44.8828 17.5214C44.8438 19.0995 43.6719 20.1464 41.9688 20.1464C39.9375 20.1464 38.6641 18.5917 38.6641 16.0058V15.998C38.6641 13.4667 39.8828 11.9823 41.9141 11.9823C43.2969 11.9823 44.2734 12.6855 44.7031 13.8964L44.7266 13.9823H46.7734L46.7422 13.8573C46.3125 11.7792 44.5781 10.2323 41.9062 10.2323C38.6562 10.2323 36.6094 12.4355 36.6094 16.0136V16.0214C36.6094 19.662 38.6562 21.8964 41.9453 21.8964ZM51.9766 21.8652C54.4062 21.8652 55.9844 20.248 55.9844 17.5605V17.5448C55.9844 14.873 54.3828 13.248 51.9688 13.248C49.5625 13.248 47.9688 14.8886 47.9688 17.5448V17.5605C47.9688 20.2402 49.5391 21.8652 51.9766 21.8652ZM51.9844 20.2948C50.7422 20.2948 49.9531 19.3027 49.9531 17.5605V17.5448C49.9531 15.8261 50.7578 14.8261 51.9688 14.8261C53.2031 14.8261 54 15.8183 54 17.5448V17.5605C54 19.2948 53.2109 20.2948 51.9844 20.2948ZM60.8984 21.8652C63.3281 21.8652 64.9062 20.248 64.9062 17.5605V17.5448C64.9062 14.873 63.3047 13.248 60.8906 13.248C58.4844 13.248 56.8906 14.8886 56.8906 17.5448V17.5605C56.8906 20.2402 58.4609 21.8652 60.8984 21.8652ZM60.9062 20.2948C59.6641 20.2948 58.875 19.3027 58.875 17.5605V17.5448C58.875 15.8261 59.6797 14.8261 60.8906 14.8261C62.125 14.8261 62.9219 15.8183 62.9219 17.5448V17.5605C62.9219 19.2948 62.1328 20.2948 60.9062 20.2948ZM69.8906 24.5995C72.2891 24.5995 73.7969 23.3417 73.7969 21.4667V13.4198H71.8516V14.8261H71.8047C71.3359 13.873 70.4297 13.248 69.2578 13.248C67.1641 13.248 65.8125 14.8573 65.8125 17.4745V17.4823C65.8125 20.0605 67.1484 21.6542 69.2266 21.6542C70.4141 21.6542 71.3516 21.0917 71.8125 20.2089H71.8516V21.4042C71.8516 22.4589 71.1562 23.1308 69.8906 23.1308C68.875 23.1308 68.2109 22.7714 68 22.2948L67.9766 22.2323H66.0625L66.0781 22.3027C66.3125 23.5995 67.6953 24.5995 69.8906 24.5995ZM69.8359 20.1542C68.5859 20.1542 67.7969 19.1464 67.7969 17.5136V17.5058C67.7969 15.8964 68.5859 14.8886 69.8359 14.8886C71.0391 14.8886 71.8594 15.912 71.8594 17.5136V17.5214C71.8594 19.1308 71.0469 20.1542 69.8359 20.1542ZM75.4453 21.7011H77.3906V10.4277H75.4453V21.7011ZM82.6875 21.8652C84.8516 21.8652 86.0703 20.5839 86.3281 19.3105L86.3516 19.2245H84.5312L84.5156 19.2792C84.3281 19.8339 83.6953 20.3495 82.7266 20.3495C81.4609 20.3495 80.6641 19.4902 80.6328 18.037H86.4297V17.412C86.4297 14.912 84.9609 13.248 82.5938 13.248C80.2266 13.248 78.7031 14.9667 78.7031 17.5761V17.5839C78.7031 20.2167 80.2031 21.8652 82.6875 21.8652ZM82.6172 14.7714C83.6484 14.7714 84.3984 15.4277 84.5391 16.7402H80.6562C80.8125 15.4667 81.5859 14.7714 82.6172 14.7714ZM91.0859 21.7011H93.1016V17.9745H95.4297C97.7109 17.9745 99.2656 16.4589 99.2656 14.2089V14.1933C99.2656 11.9355 97.7109 10.4277 95.4297 10.4277H91.0859V21.7011ZM94.9297 12.0761C96.375 12.0761 97.2188 12.8495 97.2188 14.2011V14.2167C97.2188 15.5683 96.375 16.3495 94.9297 16.3495H93.1016V12.0761H94.9297ZM100.602 21.7011H102.547V10.4277H100.602V21.7011ZM106.648 21.8417C107.742 21.8417 108.664 21.2948 109.141 20.4277H109.188V21.7011H111.133V16.0058C111.133 14.3417 109.797 13.248 107.727 13.248C105.625 13.248 104.352 14.3495 104.234 15.8183L104.227 15.912H106.031L106.047 15.8417C106.172 15.2323 106.734 14.8027 107.656 14.8027C108.641 14.8027 109.188 15.3105 109.188 16.1464V16.7167L107.023 16.8495C105.016 16.9745 103.875 17.8573 103.875 19.3261V19.3417C103.875 20.8183 104.992 21.8417 106.648 21.8417ZM105.812 19.2636V19.2558C105.812 18.5995 106.336 18.1855 107.297 18.123L109.188 18.0058V18.6308C109.188 19.6152 108.344 20.3573 107.227 20.3573C106.375 20.3573 105.812 19.9433 105.812 19.2636ZM113.781 24.4511C115.508 24.4511 116.477 23.8027 117.109 21.9823L120.086 13.4198H118.039L116.094 20.0448H116.039L114.102 13.4198H111.977L114.953 21.7089L114.836 22.0448C114.586 22.7402 114.172 22.9511 113.43 22.9511C113.156 22.9511 112.93 22.912 112.781 22.8808V24.3652C113.016 24.4042 113.406 24.4511 113.781 24.4511Z" fill="white"/>
</svg>
