<svg width="32" height="32" viewBox="0 0 32 32" fill="none" xmlns="http://www.w3.org/2000/svg">
<path opacity="0.1" fill-rule="evenodd" clip-rule="evenodd" d="M0 15.999C0 7.16247 7.16344 -0.000976562 16 -0.000976562C24.8366 -0.000976562 32 7.16247 32 15.999C32 24.8356 24.8366 31.999 16 31.999C7.16344 31.999 0 24.8356 0 15.999Z" fill="white"/>
<path fill-rule="evenodd" clip-rule="evenodd" d="M16.0008 7.46558C13.6833 7.46558 13.3924 7.47571 12.4822 7.51713C11.5737 7.55873 10.9536 7.70256 10.4111 7.91358C9.84981 8.13154 9.37372 8.4231 8.8994 8.89759C8.42473 9.37191 8.13317 9.848 7.9145 10.4091C7.70294 10.9518 7.55894 11.5721 7.51805 12.4802C7.47734 13.3904 7.46667 13.6815 7.46667 15.999C7.46667 18.3165 7.47699 18.6065 7.51823 19.5167C7.56001 20.4252 7.70383 21.0453 7.91468 21.5879C8.13282 22.1491 8.42437 22.6252 8.89887 23.0995C9.37301 23.5742 9.8491 23.8665 10.41 24.0844C10.9529 24.2954 11.5732 24.4393 12.4815 24.4809C13.3917 24.5223 13.6824 24.5324 15.9997 24.5324C18.3175 24.5324 18.6074 24.5223 19.5176 24.4809C20.4261 24.4393 21.0469 24.2954 21.5898 24.0844C22.1509 23.8665 22.6263 23.5742 23.1004 23.0995C23.5751 22.6252 23.8667 22.1491 24.0853 21.588C24.2951 21.0453 24.4391 20.425 24.4818 19.5169C24.5227 18.6067 24.5333 18.3165 24.5333 15.999C24.5333 13.6815 24.5227 13.3906 24.4818 12.4804C24.4391 11.5719 24.2951 10.9518 24.0853 10.4093C23.8667 9.848 23.5751 9.37191 23.1004 8.89759C22.6258 8.42292 22.1511 8.13136 21.5893 7.91358C21.0453 7.70256 20.4249 7.55873 19.5164 7.51713C18.6062 7.47571 18.3164 7.46558 15.9981 7.46558H16.0008ZM15.2353 9.00335C15.4625 9.00299 15.716 9.00335 16.0008 9.00335C18.2792 9.00335 18.5492 9.01152 19.449 9.05241C20.281 9.09046 20.7326 9.22948 21.0334 9.34628C21.4316 9.50095 21.7155 9.68584 22.014 9.98451C22.3127 10.2832 22.4976 10.5676 22.6526 10.9659C22.7694 11.2663 22.9086 11.7179 22.9464 12.5499C22.9873 13.4494 22.9962 13.7197 22.9962 15.997C22.9962 18.2744 22.9873 18.5446 22.9464 19.4442C22.9084 20.2762 22.7694 20.7277 22.6526 21.0282C22.4979 21.4264 22.3127 21.71 22.014 22.0085C21.7153 22.3071 21.4318 22.492 21.0334 22.6467C20.7329 22.764 20.281 22.9027 19.449 22.9407C18.5494 22.9816 18.2792 22.9905 16.0008 22.9905C13.7222 22.9905 13.4521 22.9816 12.5526 22.9407C11.7205 22.9023 11.269 22.7633 10.968 22.6465C10.5698 22.4918 10.2853 22.307 9.98666 22.0083C9.68799 21.7096 9.5031 21.4259 9.34808 21.0275C9.23128 20.727 9.09208 20.2755 9.05421 19.4435C9.01332 18.5439 9.00514 18.2737 9.00514 15.9949C9.00514 13.7161 9.01332 13.4473 9.05421 12.5477C9.09226 11.7157 9.23128 11.2642 9.34808 10.9634C9.50275 10.5651 9.68799 10.2807 9.98666 9.98202C10.2853 9.68335 10.5698 9.49846 10.968 9.34344C11.2688 9.2261 11.7205 9.08744 12.5526 9.04921C13.3398 9.01366 13.6448 9.00299 15.2353 9.00121V9.00335ZM20.5558 10.4203C19.9905 10.4203 19.5318 10.8784 19.5318 11.4439C19.5318 12.0092 19.9905 12.4679 20.5558 12.4679C21.1212 12.4679 21.5799 12.0092 21.5799 11.4439C21.5799 10.8786 21.1212 10.4203 20.5558 10.4203ZM16.0008 11.6167C13.5807 11.6167 11.6186 13.5789 11.6186 15.999C11.6186 18.4191 13.5807 20.3804 16.0008 20.3804C18.4209 20.3804 20.3824 18.4191 20.3824 15.999C20.3824 13.5789 18.4209 11.6167 16.0008 11.6167ZM16.0008 13.1545C17.5717 13.1545 18.8453 14.4279 18.8453 15.999C18.8453 17.5698 17.5717 18.8434 16.0008 18.8434C14.4298 18.8434 13.1563 17.5698 13.1563 15.999C13.1563 14.4279 14.4298 13.1545 16.0008 13.1545Z" fill="white"/>
</svg>
