<svg width="146" height="49" viewBox="0 0 146 49" fill="none" xmlns="http://www.w3.org/2000/svg">
<path d="M59.3647 28.5883C59.3647 27.8265 59.4431 27.1191 59.5922 26.4662C59.7492 25.8132 60.0003 25.2457 60.3691 24.7482C60.73 24.2585 61.2087 23.8698 61.8051 23.59C62.4014 23.3101 63.1234 23.1625 63.9787 23.1625C64.2612 23.1625 64.5594 23.178 64.8654 23.2091C65.1714 23.2402 65.4382 23.279 65.6579 23.3257V19.0192C65.2813 18.9104 64.9439 18.856 64.6378 18.856C64.0415 18.856 63.4765 18.9415 62.9272 19.1203C62.3779 19.2913 61.86 19.54 61.3813 19.851C60.8948 20.1697 60.4711 20.5506 60.0944 20.9937C59.7178 21.4367 59.4274 21.9265 59.2077 22.4473H59.1371V19.3146H54.6879V36.1907H59.3647V28.5883Z" fill="#4B7EF6"/>
<path d="M57.5047 41.9431H55.1427V40.0386H54.5464V44.4772H55.1427V42.4406H57.5047V44.4772H58.101V40.0386H57.5047V41.9431Z" fill="#4B7EF6"/>
<path d="M62.5198 40.6373C62.3393 40.4197 62.1196 40.2486 61.845 40.1243C61.5782 39.9921 61.2643 39.9299 60.9112 39.9299C60.5581 39.9299 60.2442 39.9921 59.9774 40.1243C59.7106 40.2564 59.483 40.4274 59.3025 40.6373C59.1221 40.855 58.9887 41.1037 58.8945 41.3836C58.8003 41.6634 58.7611 41.951 58.7611 42.2542C58.7611 42.5574 58.8082 42.845 58.8945 43.1248C58.9808 43.4047 59.1221 43.6534 59.3025 43.8711C59.483 44.0887 59.7027 44.2598 59.9774 44.3841C60.252 44.5085 60.5581 44.5707 60.9112 44.5707C61.2643 44.5707 61.5782 44.5085 61.845 44.3841C62.1118 44.2598 62.3393 44.0887 62.5198 43.8711C62.7003 43.6534 62.8337 43.4047 62.9279 43.1248C63.022 42.845 63.0612 42.5574 63.0612 42.2542C63.0612 41.951 63.0142 41.6634 62.9279 41.3836C62.8415 41.1037 62.7003 40.855 62.5198 40.6373ZM62.3786 42.9227C62.3236 43.1404 62.2295 43.3347 62.1039 43.5135C61.9784 43.6845 61.8136 43.8244 61.6174 43.9333C61.4212 44.0421 61.1858 44.0887 60.9112 44.0887C60.6365 44.0887 60.4011 44.0343 60.205 43.9333C60.0088 43.8244 59.844 43.6845 59.7184 43.5135C59.5929 43.3425 59.4987 43.1404 59.4438 42.9227C59.3889 42.7051 59.3575 42.4874 59.3575 42.262C59.3575 42.0365 59.3889 41.8189 59.4438 41.6012C59.4987 41.3836 59.5929 41.1892 59.7184 41.0104C59.844 40.8394 60.0088 40.6995 60.205 40.5907C60.4011 40.4819 60.6365 40.4352 60.9112 40.4352C61.1858 40.4352 61.4212 40.4896 61.6174 40.5907C61.8136 40.6995 61.9784 40.8394 62.1039 41.0104C62.2295 41.1815 62.3236 41.3836 62.3786 41.6012C62.4335 41.8189 62.4649 42.0365 62.4649 42.262C62.4649 42.4874 62.4335 42.7051 62.3786 42.9227Z" fill="#4B7EF6"/>
<path d="M67.5115 19.3145V36.1907H72.1883V28.5805C72.1883 27.8187 72.2667 27.1113 72.4158 26.4583C72.5728 25.8054 72.8239 25.2379 73.1927 24.7404C73.5536 24.2507 74.0323 23.862 74.6287 23.5822C75.225 23.3023 75.947 23.1546 76.8023 23.1546C77.0848 23.1546 77.383 23.1702 77.689 23.2013C77.995 23.2324 78.2618 23.2712 78.4815 23.3179V19.0114C78.1049 18.9026 77.7675 18.8481 77.4614 18.8481C76.8651 18.8481 76.3001 18.9336 75.7508 19.1124C75.2015 19.2835 74.6836 19.5322 74.2049 19.8431C73.7184 20.1619 73.2947 20.5428 72.918 20.9858C72.5414 21.4289 72.251 21.9187 72.0313 22.4395H71.9686V19.3068H67.5115V19.3145Z" fill="#4B7EF6"/>
<path d="M89.5765 33.0736C89.2783 33.2369 88.9487 33.3535 88.5877 33.4312C88.2268 33.5089 87.8815 33.5478 87.5519 33.5478C87.089 33.5478 86.6495 33.4934 86.218 33.3846C85.7864 33.2757 85.4097 33.1047 85.0801 32.8793C84.7506 32.6539 84.4838 32.3585 84.2719 32.0009C84.06 31.6433 83.958 31.2158 83.958 30.7105H79.5088C79.5559 31.8454 79.807 32.786 80.2856 33.5323C80.7565 34.2863 81.3607 34.8849 82.0983 35.3435C82.8359 35.8021 83.6755 36.1286 84.6172 36.3229C85.5588 36.5173 86.5318 36.6183 87.5206 36.6183C88.4857 36.6183 89.4352 36.525 90.369 36.3385C91.3028 36.1519 92.1346 35.8332 92.8565 35.3746C93.5784 34.9159 94.1669 34.3096 94.6221 33.5634C95.0693 32.8093 95.2969 31.8843 95.2969 30.7727C95.2969 29.9876 95.14 29.3346 94.8339 28.7982C94.5279 28.2619 94.1199 27.8188 93.6177 27.4612C93.1154 27.1036 92.5348 26.816 91.8835 26.5984C91.2322 26.3807 90.573 26.1941 89.8903 26.0464C89.2312 25.891 88.5799 25.751 87.9443 25.6189C87.3087 25.4867 86.7437 25.3391 86.2493 25.1758C85.755 25.0126 85.3548 24.8027 85.0488 24.5384C84.7427 24.2741 84.5858 23.9398 84.5858 23.5278C84.5858 23.178 84.6721 22.906 84.8526 22.6961C85.0252 22.4862 85.2449 22.3307 85.496 22.2219C85.7471 22.1131 86.0296 22.0431 86.3357 22.012C86.6417 21.9809 86.932 21.9654 87.191 21.9654C88.0228 21.9654 88.7525 22.1208 89.3646 22.4396C89.9767 22.7583 90.3219 23.3568 90.3847 24.2508H94.8339C94.7476 23.2091 94.473 22.3385 94.0257 21.6544C93.5784 20.9704 93.0056 20.4185 92.3307 20.0065C91.6481 19.5945 90.8712 19.2991 90.008 19.1281C89.137 18.9571 88.2425 18.8638 87.3244 18.8638C86.3984 18.8638 85.5039 18.9415 84.625 19.1048C83.7462 19.268 82.9536 19.5478 82.2552 19.9521C81.549 20.3563 80.984 20.9082 80.5603 21.6C80.1287 22.2996 79.9168 23.1858 79.9168 24.2741C79.9168 25.0126 80.0738 25.6422 80.3798 26.1553C80.6858 26.6683 81.0939 27.0881 81.5961 27.4301C82.0983 27.7721 82.679 28.0364 83.3303 28.2463C83.9816 28.4562 84.6407 28.635 85.3234 28.7827C86.9948 29.1325 88.2974 29.4823 89.2312 29.8243C90.165 30.1741 90.6358 30.695 90.6358 31.3946C90.6358 31.8066 90.5338 32.1486 90.3376 32.4207C90.1179 32.6927 89.8668 32.9104 89.5765 33.0736Z" fill="#4B7EF6"/>
<path d="M107.39 22.416V19.3144H103.961V14.2539H99.2839V19.3144H96.4511V22.416H99.2839V32.3738C99.2839 33.2211 99.4251 33.9052 99.7155 34.4338C99.9979 34.9546 100.39 35.3588 100.885 35.6386C101.379 35.9185 101.952 36.1128 102.595 36.2061C103.247 36.3072 103.929 36.3538 104.651 36.3538C105.114 36.3538 105.585 36.346 106.072 36.3227C106.558 36.2994 106.997 36.2605 107.39 36.1906V32.5992C107.17 32.6459 106.943 32.677 106.699 32.7003C106.456 32.7236 106.205 32.7314 105.938 32.7314C105.146 32.7314 104.62 32.5992 104.353 32.3427C104.086 32.0862 103.961 31.5576 103.961 30.7725V22.416H107.39Z" fill="#4B7EF6"/>
<path d="M125.446 25.1213C125.14 23.9242 124.638 22.8592 123.947 21.9187C123.257 20.9858 122.37 20.2396 121.295 19.6799C120.22 19.128 118.956 18.8481 117.505 18.8481C116.21 18.8481 115.025 19.0736 113.958 19.5322C112.891 19.9908 111.973 20.6127 111.204 21.4134C110.435 22.2063 109.838 23.1469 109.422 24.2351C109.006 25.3234 108.795 26.4972 108.795 27.7643C108.795 29.0702 108.999 30.2673 109.407 31.3556C109.815 32.4439 110.388 33.3767 111.141 34.1618C111.886 34.947 112.797 35.5533 113.879 35.973C114.954 36.4006 116.163 36.6105 117.505 36.6105C119.435 36.6105 121.083 36.1752 122.448 35.3045C123.814 34.4339 124.818 32.988 125.477 30.9592H121.358C121.201 31.48 120.785 31.9775 120.102 32.4439C119.419 32.9103 118.611 33.1435 117.662 33.1435C116.343 33.1435 115.331 32.8093 114.633 32.133C113.927 31.4567 113.542 30.3684 113.479 28.8681H125.775C125.862 27.57 125.752 26.3184 125.446 25.1213ZM113.487 25.9375C113.511 25.611 113.581 25.2379 113.699 24.8259C113.817 24.4139 114.029 24.0175 114.327 23.6521C114.625 23.279 115.017 22.9681 115.512 22.7193C116.006 22.4706 116.626 22.3462 117.371 22.3462C118.517 22.3462 119.365 22.6494 119.922 23.2635C120.479 23.8698 120.871 24.7637 121.091 25.9375H113.487Z" fill="#4B7EF6"/>
<path d="M139.554 19.3146L133.653 25.3856V12.8782H128.969V36.1907H133.653V30.384L135.466 28.6505L140.143 36.1907H145.816L138.66 25.5178L145.086 19.3146H139.554Z" fill="#4B7EF6"/>
<path d="M65.9649 43.7698L64.5525 40.0386H63.7364V44.4772H64.3014V40.7848H64.3171L65.7138 44.4772H66.2239L67.6206 40.7848H67.6363V44.4772H68.2013V40.0386H67.3852L65.9649 43.7698Z" fill="#4B7EF6"/>
<path d="M69.7225 42.4406H72.053V41.9431H69.7225V40.5361H72.2257V40.0386H69.1261V44.4772H72.2414V43.9797H69.7225V42.4406Z" fill="#4B7EF6"/>
<path d="M75.8055 40.0386L74.0635 44.4772H74.6756L75.1778 43.1402H77.0768L77.5633 44.4772H78.2224L76.4725 40.0386H75.8055ZM75.3583 42.6427L76.1194 40.5749H76.1351L76.8806 42.6427H75.3583Z" fill="#4B7EF6"/>
<path d="M81.572 42.8759C81.572 43.2723 81.4699 43.5755 81.2738 43.7776C81.0776 43.9797 80.7873 44.0885 80.4028 44.0885C80.0026 44.0885 79.6965 43.9875 79.4768 43.7776C79.2649 43.5755 79.1551 43.2723 79.1551 42.8759V40.0386H78.5587V42.8759C78.5587 43.4667 78.7235 43.902 79.0452 44.1741C79.367 44.4461 79.8221 44.5783 80.3949 44.5783C80.9599 44.5783 81.3915 44.4384 81.6975 44.1507C82.0035 43.8631 82.1526 43.4433 82.1526 42.8759V40.0386H81.5563V42.8759H81.572Z" fill="#4B7EF6"/>
<path d="M82.5839 40.5361H84.0748V44.4772H84.6712V40.5361H86.17V40.0386H82.5839V40.5361Z" fill="#4B7EF6"/>
<path d="M90.1026 40.6373C89.9221 40.4197 89.7024 40.2486 89.4277 40.1243C89.1609 39.9921 88.847 39.9299 88.4939 39.9299C88.1408 39.9299 87.8269 39.9921 87.5601 40.1243C87.2933 40.2564 87.0658 40.4274 86.8853 40.6373C86.7048 40.855 86.5714 41.1037 86.4772 41.3836C86.3831 41.6634 86.3438 41.951 86.3438 42.2542C86.3438 42.5574 86.3909 42.845 86.4772 43.1248C86.5636 43.4047 86.7048 43.6534 86.8853 43.8711C87.0658 44.0887 87.2855 44.2598 87.5601 44.3841C87.8348 44.5085 88.1408 44.5707 88.4939 44.5707C88.847 44.5707 89.1609 44.5085 89.4277 44.3841C89.6945 44.2598 89.9221 44.0887 90.1026 43.8711C90.283 43.6534 90.4164 43.4047 90.5106 43.1248C90.6048 42.845 90.644 42.5574 90.644 42.2542C90.644 41.951 90.5969 41.6634 90.5106 41.3836C90.4243 41.1037 90.283 40.855 90.1026 40.6373ZM89.9613 42.9227C89.9064 43.1404 89.8122 43.3347 89.6867 43.5135C89.5611 43.6845 89.3963 43.8244 89.2002 43.9333C89.004 44.0421 88.7686 44.0887 88.4939 44.0887C88.2193 44.0887 87.9839 44.0343 87.7877 43.9333C87.5915 43.8244 87.4267 43.6845 87.3012 43.5135C87.1756 43.3425 87.0815 43.1404 87.0265 42.9227C86.9716 42.7051 86.9402 42.4874 86.9402 42.262C86.9402 42.0365 86.9716 41.8189 87.0265 41.6012C87.0815 41.3836 87.1756 41.1892 87.3012 41.0104C87.4267 40.8394 87.5915 40.6995 87.7877 40.5907C87.9839 40.4819 88.2193 40.4352 88.4939 40.4352C88.7686 40.4352 89.004 40.4896 89.2002 40.5907C89.3963 40.6995 89.5611 40.8394 89.6867 41.0104C89.8122 41.1815 89.9064 41.3836 89.9613 41.6012C90.0162 41.8189 90.0476 42.0365 90.0476 42.262C90.0476 42.4874 90.0162 42.7051 89.9613 42.9227Z" fill="#4B7EF6"/>
<path d="M93.5477 43.7698L92.1352 40.0386H91.3192V44.4772H91.8841V40.7848H91.8998L93.2966 44.4772H93.8066L95.2113 40.7848H95.2191V44.4772H95.7841V40.0386H94.968L93.5477 43.7698Z" fill="#4B7EF6"/>
<path d="M97.9329 40.0386L96.1909 44.4772H96.8029L97.3051 43.1402H99.2041L99.6906 44.4772H100.35L98.5999 40.0386H97.9329ZM97.4856 42.6427L98.2468 40.5749H98.2625L99.0079 42.6427H97.4856Z" fill="#4B7EF6"/>
<path d="M99.6678 40.5361H101.159V44.4772H101.755V40.5361H103.246V40.0386H99.6678V40.5361Z" fill="#4B7EF6"/>
<path d="M104.305 40.0386H103.708V44.4772H104.305V40.0386Z" fill="#4B7EF6"/>
<path d="M108.745 40.6373C108.565 40.4197 108.345 40.2486 108.071 40.1243C107.804 39.9921 107.49 39.9299 107.137 39.9299C106.784 39.9299 106.47 39.9921 106.203 40.1243C105.936 40.2564 105.709 40.4274 105.528 40.6373C105.348 40.855 105.214 41.1037 105.12 41.3836C105.026 41.6634 104.987 41.951 104.987 42.2542C104.987 42.5574 105.034 42.845 105.12 43.1248C105.206 43.4047 105.348 43.6534 105.528 43.8711C105.709 44.0887 105.928 44.2598 106.203 44.3841C106.478 44.5085 106.784 44.5707 107.137 44.5707C107.49 44.5707 107.804 44.5085 108.071 44.3841C108.337 44.2598 108.565 44.0887 108.745 43.8711C108.926 43.6534 109.059 43.4047 109.153 43.1248C109.248 42.845 109.287 42.5574 109.287 42.2542C109.287 41.951 109.24 41.6634 109.153 41.3836C109.067 41.1037 108.926 40.855 108.745 40.6373ZM108.604 42.9227C108.549 43.1404 108.455 43.3347 108.33 43.5135C108.204 43.6845 108.039 43.8244 107.843 43.9333C107.647 44.0421 107.411 44.0887 107.137 44.0887C106.862 44.0887 106.627 44.0343 106.431 43.9333C106.234 43.8244 106.07 43.6845 105.944 43.5135C105.819 43.3425 105.724 43.1404 105.669 42.9227C105.614 42.7051 105.583 42.4874 105.583 42.262C105.583 42.0365 105.614 41.8189 105.669 41.6012C105.724 41.3836 105.819 41.1892 105.944 41.0104C106.07 40.8394 106.234 40.6995 106.431 40.5907C106.627 40.4819 106.862 40.4352 107.137 40.4352C107.411 40.4352 107.647 40.4896 107.843 40.5907C108.039 40.6995 108.204 40.8394 108.33 41.0104C108.455 41.1815 108.549 41.3836 108.604 41.6012C108.659 41.8189 108.69 42.0365 108.69 42.262C108.69 42.4874 108.659 42.7051 108.604 42.9227Z" fill="#4B7EF6"/>
<path d="M112.952 43.6377H112.944L110.582 40.0386H109.947V44.4772H110.512V40.917H110.528L112.866 44.4772H113.517V40.0386H112.952V43.6377Z" fill="#4B7EF6"/>
<path d="M119.002 42.3475C118.868 42.2542 118.711 42.1765 118.539 42.1221C118.366 42.0676 118.194 42.021 118.013 41.9744C117.833 41.9355 117.66 41.8966 117.487 41.8577C117.315 41.8189 117.158 41.78 117.024 41.7256C116.891 41.6712 116.781 41.6012 116.695 41.5157C116.616 41.4302 116.569 41.3214 116.569 41.1815C116.569 41.0338 116.601 40.9172 116.655 40.8161C116.71 40.7228 116.789 40.6373 116.883 40.5829C116.977 40.5285 117.087 40.4819 117.205 40.4585C117.322 40.4352 117.448 40.4197 117.574 40.4197C117.88 40.4197 118.139 40.4896 118.335 40.6373C118.531 40.785 118.649 41.0104 118.68 41.3292H119.245C119.237 41.0882 119.19 40.8705 119.104 40.6995C119.017 40.5285 118.9 40.3808 118.751 40.2642C118.602 40.1476 118.429 40.0621 118.233 40.0077C118.037 39.9533 117.825 39.9299 117.589 39.9299C117.385 39.9299 117.181 39.9533 116.993 40.0077C116.797 40.0621 116.624 40.1398 116.475 40.2409C116.326 40.3497 116.2 40.4818 116.106 40.6451C116.012 40.8083 115.965 41.0027 115.965 41.2281C115.965 41.4302 116.004 41.6012 116.091 41.7334C116.177 41.8655 116.279 41.9744 116.42 42.0599C116.561 42.1454 116.71 42.2153 116.883 42.262C117.056 42.3086 117.228 42.363 117.409 42.4019C117.589 42.4408 117.762 42.4796 117.935 42.5185C118.107 42.5574 118.264 42.604 118.398 42.6662C118.531 42.7284 118.641 42.8061 118.727 42.8994C118.813 42.9927 118.853 43.117 118.853 43.2725C118.853 43.4358 118.821 43.5679 118.751 43.669C118.68 43.77 118.594 43.8555 118.484 43.9177C118.374 43.9799 118.256 44.0188 118.115 44.0421C117.982 44.0654 117.84 44.081 117.707 44.081C117.542 44.081 117.377 44.0576 117.22 44.0188C117.064 43.9799 116.922 43.9099 116.805 43.8244C116.687 43.7389 116.593 43.6301 116.514 43.4902C116.436 43.3503 116.404 43.1948 116.404 43.0082H115.839C115.839 43.2803 115.887 43.5135 115.989 43.7078C116.091 43.9022 116.224 44.0654 116.389 44.1898C116.561 44.3142 116.758 44.4074 116.977 44.4696C117.205 44.5318 117.44 44.5629 117.691 44.5629C117.895 44.5629 118.099 44.5396 118.311 44.4929C118.515 44.4463 118.704 44.3686 118.876 44.2598C119.041 44.1509 119.182 44.0188 119.284 43.8477C119.394 43.6767 119.441 43.4746 119.441 43.2414C119.441 43.0238 119.402 42.8372 119.316 42.6973C119.229 42.5574 119.135 42.4485 119.002 42.3475Z" fill="#4B7EF6"/>
<path d="M121.686 42.153L120.344 40.0386H119.63L121.364 42.6582V44.4772H121.96V42.6582L123.679 40.0386H122.996L121.686 42.153Z" fill="#4B7EF6"/>
<path d="M127.014 42.3475C126.881 42.2542 126.724 42.1765 126.551 42.1221C126.379 42.0676 126.206 42.021 126.026 41.9744C125.845 41.9355 125.672 41.8966 125.5 41.8577C125.327 41.8189 125.17 41.78 125.037 41.7256C124.903 41.6712 124.794 41.6012 124.707 41.5157C124.629 41.4302 124.582 41.3214 124.582 41.1815C124.582 41.0338 124.613 40.9172 124.668 40.8161C124.723 40.7228 124.801 40.6373 124.896 40.5829C124.99 40.5285 125.1 40.4819 125.217 40.4585C125.335 40.4352 125.461 40.4197 125.586 40.4197C125.892 40.4197 126.151 40.4896 126.347 40.6373C126.543 40.785 126.661 41.0104 126.693 41.3292H127.258C127.25 41.0882 127.203 40.8705 127.116 40.6995C127.03 40.5285 126.912 40.3808 126.763 40.2642C126.614 40.1476 126.441 40.0621 126.245 40.0077C126.049 39.9533 125.837 39.9299 125.602 39.9299C125.398 39.9299 125.194 39.9533 125.005 40.0077C124.809 40.0621 124.637 40.1398 124.488 40.2409C124.338 40.3497 124.213 40.4818 124.119 40.6451C124.025 40.8083 123.978 41.0027 123.978 41.2281C123.978 41.4302 124.017 41.6012 124.103 41.7334C124.189 41.8655 124.291 41.9744 124.433 42.0599C124.574 42.1454 124.723 42.2153 124.896 42.262C125.068 42.3086 125.241 42.363 125.421 42.4019C125.602 42.4408 125.774 42.4796 125.947 42.5185C126.12 42.5574 126.277 42.604 126.41 42.6662C126.543 42.7284 126.653 42.8061 126.74 42.8994C126.826 42.9927 126.865 43.117 126.865 43.2725C126.865 43.4358 126.834 43.5679 126.763 43.669C126.693 43.77 126.606 43.8555 126.496 43.9177C126.387 43.9799 126.269 44.0188 126.128 44.0421C125.994 44.0654 125.853 44.081 125.72 44.081C125.555 44.081 125.39 44.0576 125.233 44.0188C125.076 43.9799 124.935 43.9099 124.817 43.8244C124.699 43.7389 124.605 43.6301 124.527 43.4902C124.448 43.3503 124.417 43.1948 124.417 43.0082H123.852C123.852 43.2803 123.899 43.5135 124.001 43.7078C124.103 43.9022 124.236 44.0654 124.401 44.1898C124.574 44.3142 124.77 44.4074 124.99 44.4696C125.217 44.5318 125.453 44.5629 125.704 44.5629C125.908 44.5629 126.112 44.5396 126.324 44.4929C126.528 44.4463 126.716 44.3686 126.889 44.2598C127.054 44.1509 127.195 44.0188 127.297 43.8477C127.407 43.6767 127.454 43.4746 127.454 43.2414C127.454 43.0238 127.414 42.8372 127.328 42.6973C127.242 42.5574 127.148 42.4485 127.014 42.3475Z" fill="#4B7EF6"/>
<path d="M127.642 40.5361H129.141V44.4772H129.737V40.5361H131.228V40.0386H127.642V40.5361Z" fill="#4B7EF6"/>
<path d="M132.256 42.4406H134.587V41.9431H132.256V40.5361H134.759V40.0386H131.66V44.4772H134.775V43.9797H132.256V42.4406Z" fill="#4B7EF6"/>
<path d="M137.679 43.7698L136.266 40.0386H135.45V44.4772H136.015V40.7848H136.023L137.427 44.4772H137.93L139.334 40.7848H139.342V44.4772H139.907V40.0386H139.091L137.679 43.7698Z" fill="#4B7EF6"/>
<path d="M143.737 42.3475C143.603 42.2542 143.446 42.1765 143.274 42.1221C143.101 42.0676 142.929 42.021 142.748 41.9744C142.568 41.9355 142.395 41.8966 142.222 41.8577C142.05 41.8189 141.893 41.78 141.759 41.7256C141.626 41.6712 141.516 41.6012 141.43 41.5157C141.351 41.4302 141.304 41.3214 141.304 41.1815C141.304 41.0338 141.336 40.9172 141.391 40.8161C141.445 40.7228 141.524 40.6373 141.618 40.5829C141.712 40.5285 141.822 40.4819 141.94 40.4585C142.058 40.4352 142.183 40.4197 142.309 40.4197C142.615 40.4197 142.874 40.4896 143.07 40.6373C143.266 40.785 143.384 41.0104 143.415 41.3292H143.98C143.972 41.0882 143.925 40.8705 143.839 40.6995C143.752 40.5285 143.635 40.3808 143.486 40.2642C143.337 40.1476 143.164 40.0621 142.968 40.0077C142.772 39.9533 142.56 39.9299 142.324 39.9299C142.12 39.9299 141.916 39.9533 141.728 40.0077C141.532 40.0621 141.359 40.1398 141.21 40.2409C141.061 40.3497 140.935 40.4818 140.841 40.6451C140.747 40.8083 140.7 41.0027 140.7 41.2281C140.7 41.4302 140.739 41.6012 140.826 41.7334C140.912 41.8655 141.014 41.9744 141.155 42.0599C141.296 42.1454 141.445 42.2153 141.618 42.262C141.791 42.3086 141.963 42.363 142.144 42.4019C142.324 42.4408 142.497 42.4796 142.67 42.5185C142.842 42.5574 142.999 42.604 143.133 42.6662C143.266 42.7284 143.376 42.8061 143.462 42.8994C143.548 42.9927 143.588 43.117 143.588 43.2725C143.588 43.4358 143.556 43.5679 143.486 43.669C143.415 43.77 143.329 43.8555 143.219 43.9177C143.109 43.9799 142.991 44.0188 142.85 44.0421C142.717 44.0654 142.575 44.081 142.442 44.081C142.277 44.081 142.112 44.0576 141.956 44.0188C141.799 43.9799 141.657 43.9099 141.54 43.8244C141.422 43.7389 141.328 43.6301 141.249 43.4902C141.171 43.3503 141.139 43.1948 141.139 43.0082H140.574C140.574 43.2803 140.622 43.5135 140.724 43.7078C140.826 43.9022 140.959 44.0654 141.124 44.1898C141.296 44.3142 141.493 44.4074 141.712 44.4696C141.94 44.5318 142.175 44.5629 142.426 44.5629C142.63 44.5629 142.834 44.5396 143.046 44.4929C143.25 44.4463 143.439 44.3686 143.611 44.2598C143.776 44.1509 143.917 44.0188 144.019 43.8477C144.129 43.6767 144.176 43.4746 144.176 43.2414C144.176 43.0238 144.137 42.8372 144.051 42.6973C143.964 42.5574 143.87 42.4485 143.737 42.3475Z" fill="#4B7EF6"/>
<path d="M144.082 38.2896H54.5555C54.4457 38.2896 54.3594 38.3749 54.3594 38.4836C54.3594 38.5922 54.4457 38.6776 54.5555 38.6776H144.082C144.192 38.6776 144.278 38.5922 144.278 38.4836C144.278 38.3749 144.192 38.2896 144.082 38.2896Z" fill="#4B7EF6"/>
<path d="M12.7938 42.554C13.1496 42.7264 13.5303 42.8106 13.9068 42.8106C14.8171 42.8106 15.6902 42.3254 16.1287 41.4833C16.7453 40.2963 16.2487 38.8487 15.024 38.2553C8.82158 35.2397 4.96938 29.1887 4.96938 22.4679C4.96524 12.7317 13.1372 4.81198 23.1794 4.81198C33.2216 4.81198 41.3935 12.7317 41.3935 22.4639C41.3935 29.1165 37.5951 35.1395 31.4796 38.1791C30.259 38.7846 29.779 40.2362 30.4038 41.4191C31.0286 42.6021 32.5265 43.0672 33.7471 42.4617C41.5259 38.5921 46.3588 30.929 46.3588 22.4639C46.3588 10.0771 35.9607 0 23.1794 0C10.398 0 0 10.0771 0 22.4639C0 31.0172 4.90317 38.7124 12.7938 42.554Z" fill="#4B7EF6"/>
<path d="M23.1788 48.5398C24.5484 48.5398 25.6614 47.4611 25.6614 46.1338V29.5806C25.6614 28.2532 24.5484 27.1746 23.1788 27.1746C21.8092 27.1746 20.6962 28.2532 20.6962 29.5806V46.1378C20.6962 47.4651 21.8092 48.5398 23.1788 48.5398Z" fill="#4B7EF6"/>
<path d="M29.3078 18.2657V30.7568C29.3078 31.643 30.0485 32.3608 30.9629 32.3608C31.8773 32.3608 32.618 31.643 32.618 30.7568V20.0862L34.7696 21.4577C35.5309 21.9429 36.5612 21.7384 37.0619 21.0005C37.5625 20.2587 37.3515 19.2642 36.5902 18.779L23.1758 10.2217L9.77788 18.8432C9.01654 19.3324 8.80966 20.3268 9.31446 21.0647C9.63306 21.5298 10.1585 21.7825 10.6964 21.7825C11.0109 21.7825 11.3295 21.6943 11.6109 21.5138L13.0839 20.5634V30.7568C13.0839 31.643 13.8245 32.3608 14.739 32.3608C15.6534 32.3608 16.3941 31.643 16.3941 30.7568V18.4341L23.184 14.0673L29.3368 17.993C29.3202 18.0813 29.3078 18.1735 29.3078 18.2657Z" fill="#54CE40" fill-opacity="0.75"/>
</svg>
