<svg width="40" height="40" viewBox="0 0 40 40" fill="none" xmlns="http://www.w3.org/2000/svg">
<path d="M13.75 11.1148C13.1974 11.1148 12.6675 11.3488 12.2768 11.7654C11.8861 12.1819 11.6666 12.7469 11.6666 13.3361C11.6666 13.9252 11.8861 14.4902 12.2768 14.9068C12.6675 15.3234 13.1974 15.5574 13.75 15.5574C14.3025 15.5574 14.8324 15.3234 15.2231 14.9068C15.6138 14.4902 15.8333 13.9252 15.8333 13.3361C15.8333 12.7469 15.6138 12.1819 15.2231 11.7654C14.8324 11.3488 14.3025 11.1148 13.75 11.1148ZM7.85415 11.1148C8.28457 9.81411 9.08277 8.68783 10.1387 7.89116C11.1947 7.0945 12.4564 6.66669 13.75 6.66669C15.0435 6.66669 16.3053 7.0945 17.3612 7.89116C18.4172 8.68783 19.2154 9.81411 19.6458 11.1148H34.5833C35.1358 11.1148 35.6658 11.3488 36.0565 11.7654C36.4472 12.1819 36.6666 12.7469 36.6666 13.3361C36.6666 13.9252 36.4472 14.4902 36.0565 14.9068C35.6658 15.3234 35.1358 15.5574 34.5833 15.5574H19.6458C19.2154 16.858 18.4172 17.9843 17.3612 18.781C16.3053 19.5776 15.0435 20.0055 13.75 20.0055C12.4564 20.0055 11.1947 19.5776 10.1387 18.781C9.08277 17.9843 8.28457 16.858 7.85415 15.5574H5.41665C4.86411 15.5574 4.33421 15.3234 3.94351 14.9068C3.55281 14.4902 3.33331 13.9252 3.33331 13.3361C3.33331 12.7469 3.55281 12.1819 3.94351 11.7654C4.33421 11.3488 4.86411 11.1148 5.41665 11.1148H7.85415ZM26.25 24.4426C25.6974 24.4426 25.1675 24.6767 24.7768 25.0933C24.3861 25.5098 24.1666 26.0748 24.1666 26.664C24.1666 27.2531 24.3861 27.8181 24.7768 28.2347C25.1675 28.6512 25.6974 28.8853 26.25 28.8853C26.8025 28.8853 27.3324 28.6512 27.7231 28.2347C28.1138 27.8181 28.3333 27.2531 28.3333 26.664C28.3333 26.0748 28.1138 25.5098 27.7231 25.0933C27.3324 24.6767 26.8025 24.4426 26.25 24.4426ZM20.3541 24.4426C20.7846 23.142 21.5828 22.0157 22.6387 21.2191C23.6947 20.4224 24.9564 19.9946 26.25 19.9946C27.5436 19.9946 28.8053 20.4224 29.8612 21.2191C30.9172 22.0157 31.7154 23.142 32.1458 24.4426H34.5833C35.1358 24.4426 35.6658 24.6767 36.0565 25.0933C36.4472 25.5098 36.6666 26.0748 36.6666 26.664C36.6666 27.2531 36.4472 27.8181 36.0565 28.2347C35.6658 28.6512 35.1358 28.8853 34.5833 28.8853H32.1458C31.7154 30.1859 30.9172 31.3122 29.8612 32.1089C28.8053 32.9055 27.5436 33.3334 26.25 33.3334C24.9564 33.3334 23.6947 32.9055 22.6387 32.1089C21.5828 31.3122 20.7846 30.1859 20.3541 28.8853H5.41665C4.86411 28.8853 4.33421 28.6512 3.94351 28.2347C3.55281 27.8181 3.33331 27.2531 3.33331 26.664C3.33331 26.0748 3.55281 25.5098 3.94351 25.0933C4.33421 24.6767 4.86411 24.4426 5.41665 24.4426H20.3541Z" fill="url(#paint0_linear)"/>
<defs>
<linearGradient id="paint0_linear" x1="20" y1="6.66669" x2="20" y2="33.3334" gradientUnits="userSpaceOnUse">
<stop stop-color="#4A81FE"/>
<stop offset="1" stop-color="#5FBAFA"/>
</linearGradient>
</defs>
</svg>
