<svg width="40" height="40" viewBox="0 0 40 40" fill="none" xmlns="http://www.w3.org/2000/svg">
<path d="M35 33.3334C35 33.7754 34.8244 34.1993 34.5118 34.5119C34.1993 34.8244 33.7754 35 33.3333 35H6.66667C6.22464 35 5.80072 34.8244 5.48816 34.5119C5.1756 34.1993 5 33.7754 5 33.3334V15.8167C4.99982 15.5627 5.0577 15.3121 5.16919 15.0839C5.28069 14.8557 5.44287 14.656 5.64333 14.5L18.9767 4.13003C19.2692 3.90243 19.6293 3.77887 20 3.77887C20.3707 3.77887 20.7308 3.90243 21.0233 4.13003L34.3567 14.5C34.5571 14.656 34.7193 14.8557 34.8308 15.0839C34.9423 15.3121 35.0002 15.5627 35 15.8167V33.3334ZM31.6667 31.6667V16.63L20 7.55669L8.33333 16.63V31.6667H31.6667ZM11.6667 25H28.3333V28.3334H11.6667V25Z" fill="url(#paint0_linear)"/>
<defs>
<linearGradient id="paint0_linear" x1="20" y1="3.77887" x2="20" y2="35" gradientUnits="userSpaceOnUse">
<stop stop-color="#4A81FE"/>
<stop offset="1" stop-color="#5FBAFA"/>
</linearGradient>
</defs>
</svg>
