<svg width="40" height="40" viewBox="0 0 40 40" fill="none" xmlns="http://www.w3.org/2000/svg">
<path d="M13.3333 8.33335C13.3333 6.56524 14.0357 4.86955 15.2859 3.61931C16.5362 2.36907 18.2319 1.66669 20 1.66669C21.7681 1.66669 23.4638 2.36907 24.714 3.61931C25.9643 4.86955 26.6666 6.56524 26.6666 8.33335V17.0917C28.705 18.511 30.2371 20.5438 31.0401 22.8941C31.8431 25.2445 31.875 27.7898 31.1313 30.1596C30.3875 32.5294 28.9068 34.6 26.9048 36.07C24.9027 37.5399 22.4837 38.3326 20 38.3326C17.5162 38.3326 15.0973 37.5399 13.0952 36.07C11.0931 34.6 9.61248 32.5294 8.8687 30.1596C8.12492 27.7898 8.15685 25.2445 8.95985 22.8941C9.76285 20.5438 11.295 18.511 13.3333 17.0917V8.33335ZM15.24 19.825C13.7836 20.8385 12.6887 22.2904 12.1147 23.9693C11.5408 25.6482 11.5176 27.4665 12.0487 29.1595C12.5798 30.8524 13.6374 32.3317 15.0675 33.3819C16.4977 34.4321 18.2257 34.9984 20 34.9984C21.7743 34.9984 23.5023 34.4321 24.9324 33.3819C26.3626 32.3317 27.4201 30.8524 27.9512 29.1595C28.4823 27.4665 28.4592 25.6482 27.8852 23.9693C27.3112 22.2904 26.2164 20.8385 24.76 19.825L23.3333 18.83V8.33335C23.3333 7.4493 22.9821 6.60145 22.357 5.97633C21.7319 5.35121 20.884 5.00002 20 5.00002C19.1159 5.00002 18.2681 5.35121 17.643 5.97633C17.0178 6.60145 16.6666 7.4493 16.6666 8.33335V18.83L15.24 19.825ZM13.3333 26.6667H26.6666C26.6666 28.4348 25.9643 30.1305 24.714 31.3807C23.4638 32.631 21.7681 33.3334 20 33.3334C18.2319 33.3334 16.5362 32.631 15.2859 31.3807C14.0357 30.1305 13.3333 28.4348 13.3333 26.6667Z" fill="url(#paint0_linear)"/>
<defs>
<linearGradient id="paint0_linear" x1="20" y1="1.66669" x2="20" y2="38.3326" gradientUnits="userSpaceOnUse">
<stop stop-color="#4A81FE"/>
<stop offset="1" stop-color="#5FBAFA"/>
</linearGradient>
</defs>
</svg>
