<svg width="19" height="19" viewBox="0 0 19 19" fill="none" xmlns="http://www.w3.org/2000/svg">
<path fill-rule="evenodd" clip-rule="evenodd" d="M17.1622 1.28653C17.3639 1.48818 17.4322 1.7875 17.338 2.05666L12.1417 16.9031C12.0412 17.1904 11.7755 17.3871 11.4713 17.3996C11.1672 17.412 10.8864 17.2375 10.7627 16.9593L7.90941 10.5393L1.48942 7.68602C1.21129 7.56241 1.0368 7.28153 1.0492 6.97742C1.06161 6.67331 1.2584 6.40758 1.54568 6.30703L16.3921 1.11079C16.6613 1.01658 16.9606 1.08489 17.1622 1.28653ZM9.3572 10.1414L11.359 14.6454L14.8621 4.63647L9.3572 10.1414ZM13.8123 3.58667L3.8034 7.08978L8.3074 9.09156L13.8123 3.58667Z" fill="white"/>
</svg>
