<svg width="32" height="32" viewBox="0 0 32 32" fill="none" xmlns="http://www.w3.org/2000/svg">
<path opacity="0.1" fill-rule="evenodd" clip-rule="evenodd" d="M0 15.999C0 7.16247 7.16344 -0.000976562 16 -0.000976562C24.8366 -0.000976562 32 7.16247 32 15.999C32 24.8356 24.8366 31.999 16 31.999C7.16344 31.999 0 24.8356 0 15.999Z" fill="white"/>
<path fill-rule="evenodd" clip-rule="evenodd" d="M15.5208 13.0041L15.5544 13.5578L14.9948 13.49C12.9579 13.2301 11.1784 12.3488 9.66756 10.8687L8.92891 10.1343L8.73865 10.6766C8.33575 11.8856 8.59316 13.1623 9.43253 14.021C9.8802 14.4955 9.77948 14.5633 9.00725 14.2809C8.73865 14.1905 8.50363 14.1227 8.48124 14.1566C8.4029 14.2357 8.6715 15.2639 8.88414 15.6706C9.17513 16.2355 9.76828 16.7892 10.4174 17.1168L10.9658 17.3767L10.3167 17.388C9.68994 17.388 9.66756 17.3993 9.73471 17.6366C9.95854 18.371 10.8427 19.1506 11.8276 19.4896L12.5214 19.7268L11.9171 20.0884C11.0218 20.6081 9.96973 20.9019 8.91772 20.9245C8.41409 20.9358 8 20.981 8 21.0149C8 21.1279 9.36538 21.7606 10.16 22.0092C12.5438 22.7436 15.3753 22.4272 17.5017 21.1731C19.0126 20.2805 20.5235 18.5066 21.2286 16.7892C21.6091 15.874 21.9896 14.2018 21.9896 13.3996C21.9896 12.8798 22.0232 12.812 22.6499 12.1906C23.0192 11.8291 23.3662 11.4336 23.4333 11.3206C23.5452 11.1059 23.534 11.1059 22.9633 11.298C22.012 11.637 21.8777 11.5918 22.3477 11.0833C22.6947 10.7218 23.1088 10.0665 23.1088 9.87438C23.1088 9.84049 22.9409 9.89698 22.7506 9.99867C22.5492 10.1117 22.1015 10.2811 21.7658 10.3828L21.1614 10.5749L20.613 10.202C20.3108 9.99867 19.8856 9.77269 19.6617 9.7049C19.0909 9.54672 18.218 9.56932 17.7032 9.7501C16.3042 10.2585 15.4201 11.5692 15.5208 13.0041Z" fill="white"/>
</svg>
