<svg width="24" height="24" viewBox="0 0 24 24" fill="none" xmlns="http://www.w3.org/2000/svg">
<path d="M17 21.0004V19.0004C17 17.9395 16.5786 16.9221 15.8284 16.172C15.0783 15.4218 14.0609 15.0004 13 15.0004H5C3.93913 15.0004 2.92172 15.4218 2.17157 16.172C1.42143 16.9221 1 17.9395 1 19.0004V21.0004" stroke="#4A81FE" stroke-width="2" stroke-linecap="round" stroke-linejoin="round"/>
<path d="M9 11.0004C11.2091 11.0004 13 9.20954 13 7.0004C13 4.79126 11.2091 3.0004 9 3.0004C6.79086 3.0004 5 4.79126 5 7.0004C5 9.20954 6.79086 11.0004 9 11.0004Z" stroke="#4A81FE" stroke-width="2" stroke-linecap="round" stroke-linejoin="round"/>
<path d="M23 21.0004V19.0004C22.9993 18.1141 22.7044 17.2532 22.1614 16.5527C21.6184 15.8523 20.8581 15.352 20 15.1304" stroke="#4A81FE" stroke-width="2" stroke-linecap="round" stroke-linejoin="round"/>
<path d="M16 3.1304C16.8604 3.3507 17.623 3.8511 18.1676 4.55271C18.7122 5.25432 19.0078 6.11723 19.0078 7.0054C19.0078 7.89357 18.7122 8.75648 18.1676 9.45809C17.623 10.1597 16.8604 10.6601 16 10.8804" stroke="#4A81FE" stroke-width="2" stroke-linecap="round" stroke-linejoin="round"/>
</svg>
