<svg width="32" height="32" viewBox="0 0 32 32" fill="none" xmlns="http://www.w3.org/2000/svg">
<path opacity="0.1" fill-rule="evenodd" clip-rule="evenodd" d="M0 15.999C0 7.16247 7.16344 -0.000976562 16 -0.000976562C24.8366 -0.000976562 32 7.16247 32 15.999C32 24.8356 24.8366 31.999 16 31.999C7.16344 31.999 0 24.8356 0 15.999Z" fill="white"/>
<path fill-rule="evenodd" clip-rule="evenodd" d="M22.6677 10.4985C23.4021 10.7001 23.9804 11.2938 24.1767 12.0478C24.5333 13.4143 24.5333 16.2657 24.5333 16.2657C24.5333 16.2657 24.5333 19.1169 24.1767 20.4835C23.9804 21.2375 23.4021 21.8313 22.6677 22.0329C21.3369 22.399 16 22.399 16 22.399C16 22.399 10.6631 22.399 9.33218 22.0329C8.59783 21.8313 8.0195 21.2375 7.82323 20.4835C7.46667 19.1169 7.46667 16.2657 7.46667 16.2657C7.46667 16.2657 7.46667 13.4143 7.82323 12.0478C8.0195 11.2938 8.59783 10.7001 9.33218 10.4985C10.6631 10.1323 16 10.1323 16 10.1323C16 10.1323 21.3369 10.1323 22.6677 10.4985ZM14.4 13.8656V19.1989L18.6667 16.5324L14.4 13.8656Z" fill="white"/>
</svg>
